/* XPM */
static char *a7784a67b41a4652ac3fd6bf1ad24889GUUzjB4g59Rhzj25[] = {
/* columns rows colors chars-per-pixel */
"64 64 164 2 ",
"   c #0F0C0C",
".  c #120E0D",
"X  c #15100F",
"o  c #110F10",
"O  c #161212",
"+  c #1D1616",
"@  c #1C1716",
"#  c #1C1717",
"$  c #1C1616",
"%  c #1E1716",
"&  c #1D1615",
"*  c #1A1515",
"=  c #1D1817",
"-  c #1F1816",
";  c #1E1817",
":  c #1D1817",
">  c #171718",
",  c #171718",
"<  c #181618",
"1  c #191618",
"2  c #181718",
"3  c #191718",
"4  c #191719",
"5  c #1A1718",
"6  c #1B1718",
"7  c #1B1719",
"8  c #1C1718",
"9  c #1A1718",
"0  c #191819",
"q  c #1B1818",
"w  c #1A1819",
"e  c #1B1819",
"r  c #1B1919",
"t  c #19181A",
"y  c #1A181A",
"u  c #1B191A",
"i  c #1B191B",
"p  c #1B1A1B",
"a  c #1C1818",
"s  c #1D1818",
"d  c #1D1918",
"f  c #1C1819",
"g  c #1D1819",
"h  c #1D1919",
"j  c #1E1818",
"k  c #1E1918",
"l  c #1F1918",
"z  c #1E1919",
"x  c #1F1A19",
"c  c #1C191A",
"v  c #1D191A",
"b  c #1C191B",
"n  c #1D191B",
"m  c #1E191A",
"M  c #1C1A1A",
"N  c #1D1A1A",
"B  c #1C1A1B",
"V  c #1D1A1B",
"C  c #1E1A1A",
"Z  c #1F1A1A",
"A  c #1E1A1B",
"S  c #1F1A1B",
"D  c #1E1B1B",
"F  c #1B1A1C",
"G  c #1D1B1C",
"H  c #1D1B1D",
"J  c #1E1B1C",
"K  c #1F1B1C",
"L  c #1E1B1D",
"P  c #1D1C1D",
"I  c #1E1C1C",
"U  c #1E1C1D",
"Y  c #1F1C1D",
"T  c #1E1D1D",
"R  c #1F1D1D",
"E  c #1D1D1E",
"W  c #1E1C1E",
"Q  c #1E1D1E",
"!  c #1F1D1E",
"~  c #1F1D1F",
"^  c #1F1E1F",
"/  c #1D1A1B",
"(  c #201614",
")  c #201816",
"_  c #201918",
"`  c #201919",
"'  c #201A19",
"]  c #211A19",
"[  c #201A1A",
"{  c #211B1A",
"}  c #221B1B",
"|  c #201B1C",
" . c #211B1C",
".. c #201B1D",
"X. c #211C1C",
"o. c #201C1D",
"O. c #211C1D",
"+. c #201D1D",
"@. c #201D1E",
"#. c #211D1E",
"$. c #201D1F",
"%. c #211D1F",
"&. c #201E1E",
"*. c #201E1F",
"=. c #211E1F",
"-. c #201F1F",
";. c #211F1F",
":. c #221E1E",
">. c #211D1D",
",. c #0E321F",
"<. c #0E321F",
"1. c #25201F",
"2. c #1E1D20",
"3. c #1F1E20",
"4. c #211E20",
"5. c #211F20",
"6. c #221F20",
"7. c #231E21",
"8. c #221F21",
"9. c #221F20",
"0. c #212021",
"q. c #232020",
"w. c #222021",
"e. c #232021",
"r. c #232022",
"t. c #222122",
"y. c #232122",
"u. c #242020",
"i. c #242021",
"p. c #252121",
"a. c #242022",
"s. c #242122",
"d. c #252123",
"f. c #242222",
"g. c #242223",
"h. c #252223",
"j. c #262222",
"k. c #262223",
"l. c #252324",
"z. c #262224",
"x. c #272324",
"c. c #272526",
"v. c #242223",
"b. c #282425",
"n. c #282526",
"m. c #292627",
"M. c #2A2627",
"N. c #292526",
"B. c #272528",
"V. c #292729",
"C. c #2A2728",
"Z. c #2D2A2B",
"A. c #312D2E",
"S. c #34302F",
"D. c #322E30",
"F. c #353133",
"G. c #393536",
"H. c #373639",
"J. c #3C3839",
"K. c #403D3E",
"L. c #165132",
"P. c #165132",
"I. c #247847",
"U. c #247847",
/* pixels */
"k ] k ] J ~ ~ k k ..k 7 O <.O O k k J 7 ~ ..* P.X X O O * * k ] ] k ) 7...7 7 , U.O O , F 4.p.l.C.l.l.x.y.%.~ O * P.* * w k ] X.",
"k ] * @ ] %.k k k k 8 O O P.P.U.w ~ k 7 ~ %.P.P.. X X P.* * @ k ] k @ @ k w 7 <.P.U.U.O 7 J y.l.l.p.p.4.~ w O O * P.* * 2 k k k ",
"] @ * & ] %.~ J J k * O O <.P.P.U.w * O = P.P.. . X P.P.* * @ @ @ ) @ & * * > <.P.P.U., 7 ~ 4.y.l.4...] T ~ 7 O P.P.* * * 8 k k ",
"] @ & & @ k ~ k k 7 * O O P., O O O O O * P.X . . . P.P.P.* * @ @ @ & * O o , <.P.P.P.U.J J 3.4.4.J J 8 ~ %.w <.<.P.U.* = k k %.",
"] @ * * X * 7 * O O O O P.P.O O X . X . P.P..   . . P.P.P.O O . O O O O .   <.<.> , P.P.7 J k ~ k w @ @ J %.~ P.<.P.U.8 * * * @ ",
"@ * * O * @ * * O O   X P.  o   X X X P.P.O X . <.P.<.P.<.O O O . X .   O O P.o , O , P.7 w k k k w w k %.p.P.P.7 P.U.* k * O * ",
"..k 7 * k x.p.4.~ 2 2 P.<.> , w F y.0.P.~ 1.~ <.P.O O * * <.J w w w , U.U.U.P.O , 7 w J ~ %.4.~ 3.3.4.4.l.P.<.p.~ k w U.%.8 @ * ",
"4.%.%.%.%.p.p.U.U.U.U.P.~ %.4.y.c.V.P.<.c.c.c.<.P.= k k k P.P.F k J U.P.P.P.<., O w k U.p.y.y.1.4.y.p.p.P.p.<.%.k 7 * 8 ] ..k ] ",
"] @ @ & O O U.P.P.P.P.<.p F F t.1.<.p.<.4.1.y.y.~ * * U.O * P.* * * U.P.P.<.P.O o O O F P.U.U.P.J <.<.U.@ @ P.* * O O & & & & & ",
"@ & X . O   P.P.P.P.<.w > O 2 p <.U.U.P.w w p ~ P.P.U.X * * P.O O * P.P.o o P.P.o O O w ~ P.P.U.<.P.P.P.U.@ P.X O O X X & & & & ",
". . . . . P.  O O <.<.O O * * 2 U.P.P.<.P.O 7 P.P.P.U.X X P.O O O * P.O O o O <.  . X w ] <.<.<.* @ P.P.P.U.P.* X * . * & ( X & ",
"X X . .       O P.X <.X X X X X U.P.. . P.P.P.P.U.U.X X . P.X O O o O o         <.    P.P.<.X X . * @ @ <.<.P.. X X X * X X X X ",
"X X X .     . P.P.O P.U.U.P.X X O X O O O P.U.U.<.<.X . P.P.O O O O o .         P.P.P.O X O O O X * * * O . <.O O * * * & & & & ",
"Z.M.@ & O , 7 P.l.y.<.P.P.U.J ~ ~ p.n.b.c.y.y.l.<.P.P.P.<.~ 3.l.l.2.J 7 F P.P.P.w <.c.y.p.y.c.V.C.4.7 * * * P.7 F C.n.B.:.M.M.n.",
"Z.C.] * O , P.<.4.y.<.P.P.P.Z.A.A.A.A.Z.n.n.l.l.n.x.p.p.4.y.U.Z.C.l.l.U.P.P.~ ~ y.c.P.Z.Z.V.Z.A.F.V.3.3.3.~ P.P.t.C.V.V.Z.D.F.A.",
"M.4.* O O O P.O O * P.~ y.P.c.Z.Z.n.%.X.) ) k @ 8 U.7 k * * J U.U.F P.P.U.7 * w w ~ 1.P.y.4.~ %.l.t.3.k k * * P.* 7 k w w ..p.x.",
"M.7.O O o . U.O   O P.O 2 = k -.t.~ = @ ( = & = P.P.U.@ @ * w P.P.P.<.P.P.U.o * * * 7 8 P.* O , F 3.F 7 X X X & P.X X X & X x.p.",
"p.7.O O O O P.U.U.X <.P.X * * 2 k w & & ( ) ] ) P.U.P.] J J 4.3.<.< O P.P.U.* & O * * @ * P.O O F F ~ O * X U.U.P.P.X & & & ) x.",
"p.%.o . . <.P.P.U.X O P.P.X X X O O * * @ k ] ] U.U.} :.4.8.l.P.<.7 * * P.P.U.o O . . o o P.P.o w w > * O U.U.P.P.<.P.X O O ] x.",
"x.4.O . . P.<.P.U.o X   P.. X X w w w 2 * k X.P.U.:.x.7.7.B.P.P.4.7 O X . . P.o . .         U.  O w w O X U.P.P.P.X P.& * 4.8.l.",
"Z.4.J 7 O P.O O P.U.O O O <.P.> T ~ ~ %.p.%.P.P.A.A.A.n.n.c.P.c.C.7.7 O O O o o O O o   U.U.P.<.> ~ p w F U.P.P.<.w P.7 8 J 8.8.",
"C.4.4.w , P.> t F F U.> , O P.<.<.P.2 %.P.P.P.C.F.G.M.x.n.n.<.U.M.Z.n.c.t.J J F F > 7 U.P.P.P.<.P.w F 3.U.U.P.<.3.3.<.P.J x.M.Z.",
"..J J k U.P.O O > t O O O o O O X <.P.P.<.y.y.4.A.A.V.U.U.P.<.P.:.7.p.l.p.%.F w F F F P.P.P.P., P.O > F U.P.t.0.3.~ J P.4.4.7.V.",
"* * O U.P.P.. O O > O O o O X . X X X O P.P.P.w x.A.b.U.P.P.<.P.U.] } } ] * * O 7 , U.P.P.P., O O P.O O 2 k ~ ~ ~ ~ O P.* 8 8 2.",
"@ * U.P.P.P.<.. O 2 2 * O O * X O O O O * * <.U.p.M.P.P.P.<.<.<.P.U.) ) ( & X X O O , U.P.* O O O P.O O * k T ~ ~ F * P.* O w k ",
"k * P.P.<.<.U.X . O * * * * * * O O O O * <.U.P.P.%.) & * <.& & P.U.) ( ( * X X . . O U.F O O O O P.O O O @ 8 F T ~ w P.* 7 w ~ ",
"3.O O O O U.P.P.. O O O * k k w O * O * O U.P.P.P.:.= * P.P.O O & & U.( ( & X X O O O * 7 O O O P.P.U.O O O O * * ~ p.<.* * 7 w ",
"y.7 * * * U.P.P.O w w ~ x.n.n.p.T T 2 2 F U.P.P.<.A.n.@ P.* O 2 ] x.} :.` <.P.U.P.4.~ * O O O , <.P.P.U.O * w J ~ c.<.P.3.~ k ~ ",
"V.4.0.y.U.P.P.<.<.P.p.C.A.A.D.P.b.1.y.y.U.P.F.F.G.<.D.V.P.B.C.Z.G.G.C.P.P.D.P.P.U.<.P.1.~ ~ %.4.P.y.P.P.c.l.c.C.C.<.<.P.U.V.V.V.",
"Z.l.-.1.k P.P.<.w P.P.%.1.P.P.P.P.P.U.1.y.c.Z.V.n.P.t.y.P.U.U.U.G.D.P.l.Z.D.P.P.P.U.<.P.1.%.y.y.P.t.t.P.4.3.U.P.<.l.c.P.P.U.j.Z.",
"~ ~ w w 7 U.<.* O O * P.P.P.P.P.U.U.~ T ~ 3.0.0.4.P.F ~ <.P.P.U.Z.p.P...7.7.P.P.P.U.} %.P.k J F P.F 3.2.t F U.F F 2.J <.P.U.k ~ ",
"~ k = w * * O O O O * * P.U.U.U.<.~ ~ %.y.y.y.0.y.P.%.%.<.P.P.P.x.<.k ] } } <.P.U.1.:.%.k P.k F P.F ~ U.U.U.P.F F F F w U.= = = ",
"%.~ %.= = * @ * * * X * X * <.<.y y 3.y.c.t.U.U.U.<.%.%.P.%.P.P.P.<.@ ) k } } P.P.7.7.:.} :.<.] P.P.<.U.P.P.~ ~ ~ ~ J U.k k @ @ ",
"y.X.%.%.%...J * X * X X X O * <.P.7 F F F U.P.P.P.<.k = P.7 @ @ 8 P.* * @ * ) ) 8 ` ] } ] @ <.U.P.<.U.P.P.P.F F w ~ %.k @ * * & ",
"1.p.} X.%.k ] %.} X.w = & * O U.P.<.P., O P.P.P.<.P.U.* P.O O X k <.* O O * * * * * * * * . U.P.P.<.<.J P.w w * J 3.%...] ) @ ] ",
"Z.F.Z.V.Z.Z.Z.Z.S.F.Z.n.j.p.U.P.P.C.P.P.F > > w P.P.U.. P.* & * U.P.J * * P.U.U.l.7.` * & * * <.%.%.~ k <.~ k T p.c.c.p.7.:.x.x.",
"C.C.Z.Z.Z.A.V.P.P.F.S.V.c.c.U.P.P.y.3.P.F F w <.<.P.P.. P.@ ] U.P.P.4.<.P.P.P.<.D.C.8 * & & <.P.* = * * P.2 T %.p.n.7.:.x.7.b.b.",
"n.n.M.C.Z.V.U.%.%.C.C.y.3.3.P.P.J F F P.<.w <.P.P.O P.O P.) X.P.P.<.U.U.U.<.<.B.Z.8.* * * * P.* * * X X P.P.U.U.y.4.] ] } x.:.x.",
"n.C.C.Z.U.U.U.k w y.j.y.~ k w F F w 7 P.P.P.<.w w o   X * P.} %.4.4.P.P.P.U.4.7.M.8.X & & X P.* * * U.U.<.P.P.U.%.J k @ } :.b.M.",
"n.n.U.P.P.P.P.U.2 F y.~ F J w F w P.P.<.7 P.> w J O   . * <.] %.~ ~ J P.P.P.4.t.M.p.( & & P.<.* * U.U.P.P.<.2 k U.~ @ ( ) } :.b.",
"%.7.:.P.P.P.P.P.<., J J P.P.P.P.P.<.w , * P.O w F O . . X X P.@ * X . * * 2 P.0.c.c.* O O P.O O * U.P.P.P.<.P.* %.4.@ * & ) } %.",
":.x.:.) @ P.P.* <.<.P.P.P.O * O * , O * , P.O ~ 3.k O X X * P.* * . . . X O * * 0.t.k X U.<.* * U.P.P.P.P.* P.P.%.Z.%.* & ) } :.",
"F.A.A.M.l.l.p.l.<.P.c.l.4.p.p.p.t.c.y.%.c.U.V.Z.D.F.V.%.7.P.U.p.7.b.x.:.%.%.4.4.c.V.c.P.P.U.0.l.n.P.P.<.%.p.p.P.<.F.D.Z.Z.A.F.S.",
"F.F.A.A.Z.Z.Z.<.<.P.U.U.Z.Z.A.A.A.Z.Z.Z.Z.P.U.F.G.F.V.V.P.U.P.<.K.K.F.M.n.c.C.B.c.<.<.<.P.P.U.D.U.P.<.p.%.x.n.Z.P.<.<.D.F.G.J.K.",
"F.p.p.c.C.C.c.P.t.P.P.P.p.p.} } x.p.%.k J U.U.U.M.:.) 1.U.P.P.<.M.A.l.7.%.4.y.4.<.~ t.t.B.U.B.V.Z.C.~ w @ k ..%.4.y.U.P.n.V.F.H.",
"F.4.4.l.C.c.y.P.J J P.P.] ) @ & ] @ * X * P.P.U.} } ] :.U.P.P.l.<.b...8 k P.P.P.P.P.P.P.F 3.0.0.t.3.w O O O * * w U.P.P.~ %.c.Z.",
"Z.y.~ l.B.t.U.P.J w w k k ] & & ] 8 X X * P.%.] P.:.:.:.P.P.y.t.M.P.%.P.P.<.J J k w w U.P.P.3.0.0.F O O O O O * * U.P.P.<.3.y.V.",
"F.4.4.J 4.U.P.P.<.7 * 8 @ @ & * * * . U.P.P.* k } } } :.U.%.~ p.M.P.<.P.* = J ~ ~ > O P.U.0.P.3.3.P.U.. . <.<.O U.P.P.<.P.k ] 1.",
"F.= * X * U.U.<.P.<.P.U.U.P.<.X O O U.P.P.<.O 2 2 2 = = @ @ @ 4.P.P.<.P.w k J y.3.w * P.U.~ <.P.F > P.U.U.<..   U.P.O O P.* * Z.",
"F.n.k * 7 P.O O O O P.P.P.U.P.* 0.l.U.P.P.<.2.0.1.y.~ F w w k <.F.G.c.P.P.y.y.c.n.n.P.P.U.~ J P.w F P.P.P.U.P.O w F w P.P.T V.Z.",
"F.F.Z.Z.c.t.y.3.t.y., <.P.P.U.y.V.F.U.P.<.D.D.F.F.F.Z.<.U.P.P.D.G.J.Z.V.P.P.c.V.Z.F.Z.U.c.p.y.<.w ~ ~ w P.P.<.<.U.P.<.P.b.M.A.Z.",
"F.F.F.Z.n.p.4.4.c.y.O O O * w %.0.B.Z.<.D.F.F.F.F.U.P.P.P.P.<.V.Z.Z.n.c.1.P.~ y.c.c.4.~ k %.J k P.w w O w %.~ U.P.P.c.y.:.%.1.Z.",
"C.Z.M.x.:.8 7 w 4.J . . O O O * t P.P.V.Z.Z.Z.D.U.P.P.P.<.<.U.U.~ %.~ T = * P.* F 3.U.U.<.O O 2 P.O O * w w w U.P.k J k @ * X.X.",
"V.Z.M.7.] @ * U.U.U..   O O O <.U.P.0.B.D.D.D.Z.Z.Z.C.t.y.<.P.P.U.k p k * * P.P.O P.P.P.U.<.O 2 P.2 w w w F w * <.w w w * * = X.",
"4.C.C.l.%.k U.U.P.P.P.P.P.P.<.U.P.t 0.B.D.V.Z.Z.Z.Z.B.0.J <.F k P.X.k k * * O P.P.<.P.P.P.U.O P.<.* 2 > w P.O O O w 2 @ * * ) %.",
"%.p...] k O U.P.P.P.P.<.<.. O U.P.t 0.B.Z.B.c.c.B.t.3.F * P.w * 2 2 * * * O O O O <.O O P.U.X <.O X O O O P.P.O * w U.= & & = %.",
"n.Z.C.n.V.U.1.~ 4.<.<.. X O U.P.P.%.c.n.V.Z.C.C.V.V.c.U.U.P.%.J %.%.X.T @ * 2 w %.P.w , U.O O <.O O U.U.P.<.P.<.U.U.C.n.1.%.1.c.",
"D.M.l.~ w O O U.P.P.w 7 > w <.<.y.V.F.F.F.F.G.S.F.F.A.U.P.P.<.V.Z.A.C.b.b.j.y.c.V.P.P.y.y.3.~ P., U.P.P.P.O <.U.P.P.S.S.A.A.Z.F.",
"A.n.c.3.y.T U.P.P.w k ~ J <.y.y.l.Z.F.Z.Z.Z.A.Z.A.Z.Z.U.P.<.P.l.P.P.U.p.p.p.p.t.c.l.<.l.l.y.~ P.> U.P.<.o O O <.j.c.V.Z.Z.V.Z.A.",
"M.n.c.c.c.%.U.P.P.<.P.P.U.<.~ ~ 0.P.y.4.} X.] X.%.X.U.P.P.* P.P.P.P.P.U.w 2 2 * * P.%.4.4.~ * <.P.U.P.<.o o <.<.~ %.j.j.p.p.y.p.",
"n.p.n.l.B.U.P.P.<.P.<.P.P.U.J ~ P.P.F F k ] ] ..T = k k k 7 * <.<.P.P.P.* O * O P.<.X...3.J F O , U.<.P.P.P.P.U.] %.:...X.] ..] ",
"n.7.7.l.B.t.P.7 2 = <.<.U.U.<.P.P.7 O w ] ] ..] ) 2 w k k k k 7 <.w * * U.* * = 8 :.:.l.t.y.4.J F F w O , w P.P.U.] ] ] = = = k ",
"l.B.B.J k J k 2 * O * O U.P.O w * O O 7 k k k k w * 2 = w w w k P.<.7 7 7 w k k J ..7.8.3.3.~ ~ c.p.y.w w k <.P.U...} ) @ ) @ @ ",
"7.l.l.4.4.~ k = O X X O O * * * * * O 7 k k @ * * 7 k k w k ~ ~ w P.w k k k k ~ ..k ..l.l.l.l.p.Z.Z.V.B.%.7.7.P.P.} } } ] * @ ` "
};
