/* XPM */
static char *ba15371557104f56ef97134acdc066f5HsBUjNgZX4wrTgJv[] = {
/* columns rows colors chars-per-pixel */
"64 64 75 1 ",
"  c #16100F",
". c #171211",
"X c #1C1514",
"o c #1E1816",
"O c #1E1A1A",
"+ c #201614",
"@ c #201816",
"# c #221C1C",
"$ c #25201F",
"% c #1E1D20",
"& c #231F20",
"* c #222022",
"= c #272121",
"- c #262324",
"; c #242326",
": c #262326",
"> c #262527",
", c #282424",
"< c #2B2425",
"1 c #292426",
"2 c #282627",
"3 c #2C2525",
"4 c #2C2627",
"5 c #262528",
"6 c #272528",
"7 c #272628",
"8 c #2A2628",
"9 c #2A2728",
"0 c #2B2729",
"q c #29262A",
"w c #2D2728",
"e c #2B282A",
"r c #2A282B",
"t c #2E2829",
"y c #2D292A",
"u c #2E292B",
"i c #2A292C",
"p c #2C2A2C",
"a c #2E2B2C",
"s c #2C2A2E",
"d c #2F2D2F",
"f c #302B2C",
"g c #322D2D",
"h c #312C2E",
"j c #342E2F",
"k c #352F2F",
"l c #34302F",
"z c #2F2D30",
"x c #302E30",
"c c #322E30",
"v c #332F31",
"b c #312E32",
"n c #312F32",
"m c #313031",
"M c #343131",
"N c #363031",
"B c #333134",
"V c #363334",
"C c #363335",
"Z c #373536",
"A c #383233",
"S c #393535",
"D c #393536",
"F c #383537",
"G c #3A3537",
"H c #373639",
"J c #3B3738",
"K c #3A3639",
"L c #3D393A",
"P c #3D3A3C",
"I c #413C3E",
"U c #3F3D40",
"Y c #423E41",
"T c #454143",
"R c #494345",
/* pixels */
"oo#o#O%OO&#####&&#=O88#OoooX#####oo:&=ixx888:&=:2=:2>22XoOOOOO##",
"o#Xo%OoOO######&*;#O7e#Xo.o####@#oo##:pxze7:&2:>=:>=**XOOO###O#X",
"ooXX##%O&=#$&#&&OOOO=4#+ooo#oo#o+@o@#&rCxp78::>:*==#=7%OOOOX#OO#",
"ooXXoO#&&&=====&OoOO#&#X.@++##o##+o@oo;nzi7*1&:==&=#:7&@O###oOo#",
"#XX.XOoOo##&%&OO@XXXXoXXX.+oo.XXXXX+OOOip2>=&&&&*###=y1@OO##OXXX",
"OX..XO#oo##OOOOoXXX.X#oXX...o+@XOXXXo&;&>>==#&#&&%#&2pk=##OXO..X",
"OOOO:hhypyypppdpyyyypxp:#+###=1:;;&&pMzr0000822:77yyfAGf:&%*%OOO",
"*&*:8hkAMxmCFJLJFFJFGFCvp2&&:21188408fp8000yy4887yyy0442&&OOXOOO",
"######=e2>izzzmMvkxxhhhp7X+@#####=#2&&***%#7=1:777=4####@X.OXXX+",
"XXXXoo##O&787>284422882:&oo.oo######*&**OXX#&##O&=@&##o#@..XX.XX",
"  XXXXoo&O*:&##########&&OX.X@O&##=2==:&oXX:##XXX##=##@XXX.XXXXX",
".   XXX#=oXo++XoXX+Xoo.oO..XXooO########OXXoXX..X.@##+OXX..X    ",
"...+XXX2h&@XoXXX.@##OXX@:&o.Xooo##X#OO#XO*#oXX...Xoo..X.XXXXX.X.",
"yf##=:yFICpy87*&7fAvdzppJCp8eyBZAjzpzxppmPLxieypi=%&###O;xz820py",
"yy#=2fkFJFMAMMBCCJAkhfffhxxffzMIPAJJJCAJPIYLLACCJi7787:7pCCxfxAp",
"y=###=421=2>>:ephp=#@######&##=pp8ii822yppddp82>87;=##oO&#&#&#:2",
"02OOO=:#######O*7*ooo+oo@##@##=7%&&&#####=&:=#O&&&*&o.o.++XXoX:&",
":=OO&&=####@#@##*Ooo+###@####&88:&&&#X####$==&##;;*O+X++++o#X#@:",
"=:XO#####+oo+o+oOooo@##@####&7ipi&*XXXXX@#oO##O#>>*OoXooooX@XX#2",
"8=XXX####@oo+@o@:>*$##&##===18ei8%.XXX..XXXXXXXo=7&OXXXXoXXX#&7&",
"f71&@**::2&&*:78mhyff88yxMy28888p1OOXXOOXOOOOOXO7d8****&&%&#&&:&",
"p8p&=r77pi87eyype88hMkxfFJy1::80pp888:&:777pfpi7ediyxxzi87::&zfp",
"1&&:&&##>>**$$#@O##80p88hA8###&&#&:12&;=7>iBAmp87>>eeppe7:87:88i",
"##oX##Xo=>=#OO@@oo###==#4h:oXo+o#X###OXX:;7zxp7:*:===7:=7*X.###&",
"#+XXOOoX#=>####@########$4#oX++o+@@+@@oXo%*ip8::====2==:7:#XOOO#",
"##O@OXXXX########O@##o@X#$@XO.oo@+@+++.XoX#i88=&=&=&#&&#=7####%&",
"8OX@OXXXXooO##*@OXooooXX##@X..X.XX+++X.+@X+&=&###########>y&###O",
"8%OOooOO*eepkMxy7=**$::7yFyoOO@X#2&####&:y8#%O#&&&&4==&:7BPM7:&7",
"z7ee>>8ydmMFIIIImypyhMJJLYPxxxvAIIp8xCvxfff488pxxCFPUJHHJPPPCMMh",
"z72e==22224yt0MAde2eedBmMMxxxmAPYP1;xxxx4t=488fxCJPYJCxCxxzzziym",
"&&%%##########2fe:>:777787788yfvAp##=#&&4####==7izCBr777777**###",
"O#O###o##o@@@@#47:>8yeeeeydppffxf1#######=#2#*=:7zBzr7777:**####",
"#%##Oo###@oo@@#*&&;sprrbyffpy0p81&######&&&&&318iAJnhee878>*##@+",
"**#**&#oXXXoXXo*&&&q17r;=:18=##XO#.o.+@+O#####&&8AJzi07>::=&##oX",
"==####O&$#OO@oo*sp;&%&%&&&%ooXXX#&o.XXX.XXXX+@XX8GCiy82=:>==##o#",
"yMeeypyylFlpeeehAHzrrzzzxyooXoo#&8:O%&&&;&OX.+X#0xx8yy8yhh8=====",
"88pphpy8hJZddpxxxxFnCCnJJ8O.X##=8pi88rixnrXXo####3=443yfkk=#===2",
"278882>#=zme77eipxxnnvnFC%.X@#=88r88r7rzz&XX.XXX#+####=4yy###=#:",
"288y222&#2py788effvxxpzxnO..oo#;288r877ix&X++ooo#####4$$8>###&=8",
"22222==##:ie77eysxffpzrzzO..X@#==:&;77rpv8@.+Xo#+#####4<e:#@@#&2",
"#&###&OoXO7:&&1=04s821::7X.  .XoX@XXo#*7xy#XXXX+@#@#####2y#+++##",
"==##@#Ooo&:%O%##&;&=&:=:7&.X...@XXX.o#&&iz#XXo########@#2C2#####",
"Mffp8rzzzmxpihxlsfffxvvMLJy#&&;;4vxp8hpzxJMe7rnCJmf84fffAYICAGFA",
"MCyfmCCCJJJAJAAFFvvAAFLLJCypxCJMIRIJAJJJJPPPUUYTRTFfykvAFILPIYYI",
"m*=>zmmdyy8yf4=&21##==00y@##yhhfvAi80fhzpxmCJPUUTPx:203fyyidmMGP",
"M*=ehde>:==&##@+##XX+#######==:2fv8&=:7e8iizzBHHJZe#####$*::20ix",
"d**7hp>>41=###@+#@X +#3##$#$#=>8vvp&#=8ei8iixZCJJx7O###===:=>>8y",
"M#&&e7*#######.o@XX .+####$#$#&8vM8&##:e87:8zxxCCx%Xooo#X#&###==",
"MoXX#OOXXXoo.o.Xoo...oooo#ooXOX:BJ7###2e8=&10pppzi&X..OX.Ooooooh",
"C2OOOOOOOOoooO##7h7O%*>777**&#&pYRm:pyhhxxffhpppdzi*ooO%*iy:*#dz",
"MFzdppp8zh&O#:2fJYIPPUPUPUPBxMMLTRJxxMMCPILvMvfpikmy00xmPILMffhp",
"CmmdpypyCx&o&=1pzCJPPPUUTTPZZMCMCCMh8=>dCCf4402221772yyymmhy=#$0",
"8p82=##=vp@o##==*7pmBBFFJJCzd88>=>=*#oo#88=O###&##&&&:*#$***oXO#",
"8p22=##:kp++X##&==ezBCFCZJBd27:*##*#@###:7;O####====>:*O#**&oXo&",
"#8882&#8f1X.X###*>izBBmCCBz72==&$######o&:&O#o###&&:=:#OO#%oXXoO",
"#=#&##+pxfXXXO+#o*eeie8pii8;########@o##*:*OoO#X######O$*=%OOXo*",
"808yMCmxAA&+OX###2yyyyyyhMf2422=:2=====8vM8&*&&&=48=&&=8hCf0#@:>",
"x87##O@&xMp;:>88iCLJZCFFPIIFAFMAFFAmmMZJYYFMCmMxMIYJffyxJLFkMkhl",
"M1:&7:&&=8882yhehJJChfhkFGFkhddyFFhhdxBCCCMMCMMBJRRPMmfflffkyydp",
"4>>>y:&&##&=>>22iii7###=222*####=2###&=#==>2888yxYIxhy22222==$*$",
">&>>87=####=#=2:7:&&###&#=$#####&&OO#O#o##=&**::xJJzpp1:=&###OO#",
":=&:7e*####*#$==%%OO###&###=*=##*=%Oo####==::::8iMMi888:&###oooo",
"::2XO%OOOoOo#OX#oOOO#+OOO###$O*&O%#O&O##&&&%&&&:xxx8&12####ooXXX",
"=::=O*OOXXXXoOO@OOOoooXOO@@#%O#*$O&O#&Oo#o#:::=1vhxh1&1&####OOXo"
};
