/* XPM */
static char *_1372aa4f4d44979ff3116c446789a08RJgLGL1AcZsbrmEi[] = {
/* columns rows colors chars-per-pixel */
"64 64 121 2 ",
"   c #050505",
".  c #080707",
"X  c #0C0C0C",
"o  c #100E0E",
"O  c #110F10",
"+  c #0F1010",
"@  c #151414",
"#  c #1B1515",
"$  c #1E1816",
"%  c #171718",
"&  c #191718",
"*  c #1D1A1B",
"=  c #201917",
"-  c #211C1C",
";  c #26201F",
":  c #1F1E20",
">  c #260328",
",  c #221F20",
"<  c #3E1720",
"1  c #351820",
"2  c #3E1E26",
"3  c #3C1F2B",
"4  c #39053C",
"5  c #222021",
"6  c #232022",
"7  c #242021",
"8  c #242223",
"9  c #242325",
"0  c #272324",
"q  c #252424",
"w  c #272424",
"e  c #252426",
"r  c #262526",
"t  c #262527",
"y  c #2A2324",
"u  c #282424",
"i  c #292527",
"p  c #282626",
"a  c #282627",
"s  c #272529",
"d  c #292728",
"f  c #2A2729",
"g  c #2D2728",
"h  c #2B282A",
"j  c #2C2829",
"k  c #2E2829",
"l  c #2C292B",
"z  c #2D2A2B",
"x  c #2A292C",
"c  c #2E2C2F",
"v  c #302B2C",
"b  c #312E2F",
"n  c #352F2F",
"m  c #3C292C",
"M  c #34302F",
"N  c #2C2735",
"B  c #2F2E30",
"V  c #302D31",
"C  c #302E31",
"Z  c #322F30",
"A  c #3F2832",
"S  c #323031",
"D  c #333032",
"F  c #363031",
"G  c #363334",
"H  c #363435",
"J  c #383233",
"K  c #393535",
"L  c #3A3638",
"P  c #3B3738",
"I  c #3E3A3C",
"U  c #411C26",
"Y  c #421F28",
"T  c #44252D",
"R  c #482530",
"E  c #4F2D36",
"W  c #502D37",
"Q  c #502C38",
"!  c #463037",
"~  c #47353A",
"^  c #4C343C",
"/  c #413C3E",
"(  c #4B383D",
")  c #52313E",
"_  c #0C4C0D",
"`  c #364825",
"'  c #394D27",
"]  c #4D6733",
"[  c #4E6934",
"{  c #3C3649",
"}  c #3F394C",
"|  c #500355",
" . c #4F3740",
".. c #433E40",
"X. c #4B324C",
"o. c #543440",
"O. c #593C44",
"+. c #443E54",
"@. c #503750",
"#. c #563A56",
"$. c #583A57",
"%. c #583B58",
"&. c #474345",
"*. c #4A4445",
"=. c #564146",
"-. c #564348",
";. c #5C474E",
":. c #49425A",
">. c #674C52",
",. c #67555D",
"<. c #68545D",
"1. c #5F5774",
"2. c #7C5D67",
"3. c #7C5D68",
"4. c #774E77",
"5. c #794F79",
"6. c #7B527C",
"7. c #668945",
"8. c #86B559",
"9. c #71678B",
"0. c #74698E",
/* pixels */
"$ - $ - = , : * = , - 1 ; - - - - 5 5 - 0 y - = # # # = $ - $ = - $ $ , 7 , i C C d d d 0 , 0 9 y 9 0 y t t t $ # * * = , : = = ",
"$ - # # * : $ * = - - - - - - 5 5 5 - - y d - # # # # - - - - - - $ $ $ , 0 l C B s y 0 0 0 s 0 0 0 0 9 0 , $ $ $ - * , = * * , ",
"= # # # = , , - , , , - - ; , , * - $ = , y - # # # # = & $ $ $ # = # = * , s C B d t 0 , s 0 0 0 7 , , , s , $ $ = - = * , = * ",
"- = # # $ $ - , , , , , 0 7 7 7 - $ $ # - , - # # = # = $ * $ $ $ # # $ $ $ , B B h 0 s s , 0 0 7 5 , - y d , $ * - = - = = = = ",
"= # # O # # * $ - - - - , , - $ $ # # @ # % # # # # # # # # # @   @ # # # & * s d s t 5 , , 7 5 , , - - 7 k i - & = - = * # # # ",
"= # # # # - - $ $ - - * $ * * $ $ # # # # * # # # o @ @ o # % + o o @ @ & * * : 5 - , 5 - - , * , - - 5 y C Z 7 , , = = * # @ # ",
"- $ $ * , v n g g k B h k c c g h h i t i h t * $ # * % $ $ + + o X + * 5 i s 5 w w i i i i s 0 0 d l k v Z K v , , 7 , , * # # ",
", , , i k n n J S c B G H P P H S S S b b k h t - $ * # o O + @ . o + + + 5 5 5 5 7 7 7 d 7 d s d x g k k k k d 1 , % % = = , = ",
"- = = = - - 5 d d t x c c c c b v k h h t t t 5 * # @ + + X . @.% 4.  @ + + % * * * * * 5 5 5 0 0 d y y - - - = , # # # # # # # ",
"= = = # = # - - - , s s s t w 5 t 7 5 5 5 * * $ % @ + + . %.%.X.@ #.5.A @ + + + % @ % * $ $ * * - , - - - - $ = # # O # # # # = ",
"# o # # # # $ - * - , 0 - - - - $ $ $ & $ # # % @ + + . 9.@ 5.%.@ X.%.% { + + + @ # @ & = $ # # # - - , - - - $ # # O $ # # # # ",
"# # o # # # # - 0 $ # $ # # # # # # # # # @ @ @ + + + { N N @ X.% %.% :.0.N X + O @ O # O # X @ O # = - = = # # # # O # # o # o ",
"o # # # # # $ i S - # $ # # # # # # # & % @ @ @ + + s N :.:.@ @ @ @ N N N N 1.+ + # % % @ @ @ @ # # $ $ $ $ # # # $ # # # # # # ",
"1 k - - 7 t k K / H k k i t * $ - t t 5 * * % + + X N 0.% N 9.:.@ :.0.:.% :.9.+ + + : * , * : 0 0 * * : $ - $ * t S C s 1 y g y ",
"h k ; ; i k M G K D S C M c B c h t t - * * + + @ s 0.@ 4 @ N N @ N N @ > @ N N @ X + 5 7 t t h c s 0 9 7 7 7 t c S K S b D D v ",
"k u - = - y g i i i 0 t 7 5 7 t 0 : * # @ % + X } N @ > | 4 @ 0.@ :.@ | 4 4 @ N +.@ + * * * * * , : , , - - - * - - - - - - y ; ",
"k 7 * - - 5 u - - - = - = = * : : & # o # o O   0.:.:.% > @ :.0.@ N :.% | % 0.N :.X + + @ # # & * * : * # # # # # # # # # = - 1 ",
"d 7 $ $ - 5 7 - - - = - = $ $ & * & @ @ @ X o :.N 9.N N @ :.:.N @ N :.:.@ 0.N :.0.{ + + % # # & * : : * $ # $ # # = = = = = = y ",
"; i $ # - - - - = = $ $ $ # # # % % % @ @ + . :.N N N :.N 0.+ :.% 0.N N 0.:.N N B 9.  + @ @ # % * : * * # # $ $ # = # # # # - y ",
"h 5 $ # = - - - - - $ # # $ $ # $ * & % @ X   @ % @ @ % % @ @ % % % @ @ % @ @ @ @ @   . + + + # * * * * # # # # # # = = $ 0 0 , ",
"C d i , - , 0 7 0 t - , : ; 5 5 t 5 * * + X 6.%.@ 0.0.N 0.:.:.N + 0.N :.N 0.N 0.@ 6.6.. + @ @ % : 9 5 : : : , , - : , , , , 0 , ",
"g g g , , k d d x h s 0 t t 5 5 : * * $ + O X.%.6.% N :.N N 0.N @ :.0.N 0.N :.% %.X.%.. + % & * : 5 5 t h c x h d s 9 0 0 B b l ",
", y , y , , - - t i 5 - - * * * % % % & + O X.%.X.6.@ N 0.N :.:.@ N N N 0.:.@ %.6.%.%.X + % * * * : * 9 t d h d s 0 y s d d d l ",
"= - # $ - - # $ 7 t 7 - * $ # * # # # @ + . %.6.#.#.6.% N 0.N % ( % :.0.N @ %.X.X.#.X.X + % % & * * * 5 - , 5 7 0 9 # # - - * - ",
"- = = $ - - $ # $ , y - * - $ $ % # # # + X X.%.X.#.X.X.@ :.@ <./ 3.% :.@ %.6.%.%.%.6.+ + @ % & * * - 5 7 7 7 7 s 9 - $ $ * - - ",
"- - $ $ * $ # # & - - = $ - $ $ & & # @ + X + ;.#.0.%.X 6.@ ^ ~ ,.3.E @ #.% %.6.%.X.@ + + % # & * $ * - - - , , 9 0 - - - - * , ",
"s = # $ $ # # $ # * $ * - * * $ % # @ @ + X :.@ $.$.$ Q @ T 1 <.-.T 1 2 + Q @ %.X.@ :.X + @ @ @ @ $ $ $ - $ - $ * d g 0 - * - , ",
"d , * * $ $ $ $ : h g k v v c s : & % @ +   N 0.@ X.@ Q T U T 3.( O.-.2 E 3.@ %.@ 0.N . + + % & * * * , 5 7 7 7 s C I C d 0 , 0 ",
"B s d d s s g d B V C K K K G C t = * * + X 0.:.N @ <.^ E Q E E 3.3.E Q W <.3.% :.N :.. + % & : : s B C H H H H G I { P G C C C ",
"B d d i y , y y g d y g g g k g t * * & + X N 0.% Q <.3.<.Q o.;.3.>.< R ) <.E E @ 0.N X + & & : 0 x C H S c C H b b C B C B k Z ",
", , , , - - - - - = - - - - - s : * % % + X N @ 1 < 1 3.E E 2 3.-. .1 T ,.T T 1 1 @ 0.X + % @ * * 9 x x t t s s t 0 0 s , - - - ",
"* - $ , - - - - - = = = = = - - : * % % + X :.:.@ E < Q <.Q ! <.( 3.W 3.3.Y T E % N 0.X + @ % * * 9 h h t 9 t t s 9 0 , - - - - ",
", 5 5 - - $ - - - = $ $ $ $ * * * % % % + X N N 0.@ 2 E E ,.E ^ -.E A O.2 E Q @ 0.:.N . + % & & - t k z h d i d d i i 5 - - = = ",
"t - - 7 5 - - $ # # $ # # # % % * % % @ + + N :.N @ % E 1 2.2.E 3.A ,.T < < % @ N 0.N . + @ @ % * i x x t d t t t ; y - - - # # ",
", , - * - - - - ; - $ $ $ # * * * * % @ + X 0.0.@ X.X.% 1 1 3.m <.T 2.1 < @ %.6.@ N :.  + @ O @ * d x d d t q t t u w 7 - - = - ",
"v C h h k k k c M K M h w t 9 t : : * % + X N @ 6.%.#.X.% < 1 =.3.2.E 3 @ X.%.%.%.@ :.. + O @ @ * 5 w w i k t k b b i u y - - y ",
"g i c k c l h h b K D c h s 5 : : * * % + X @ 6.X.%.6.%.6.@ Q m 2.T ^ @ %.6.X.%.6.X.%   O O @ @ & * * ; ; u k k M n i - y y y y ",
"i i d h k i 7 - ; b b t 9 : ; * * * % + + . :.@ %.X.%.X.%.X.% @ @ @ % %.%.%.%.%.6.@ :.. O o @ @ # # $ * - - 7 i k k - - - - - y ",
"i i d g k t t - - d k h 9 , : * * * % % + . N N @ 6.%.%.6.%.%.@ 8.@ X.6.%.6.X.%.% :.B   + @ @ @ @ # & * = - u u d t - = - , i i ",
"i t d i i t 7 - - 5 h s 9 , : * * % % @ +   N 0.N % %.X.6.%.6.@ @ % %.X.6.%.X.@ 0.N 0.  O o + @ # & * * ; - ; u d t - = = - ; y ",
"- 5 - - - - * $ $ * 0 , : % * % & @ @ @ + . :.B 0.+ % #.#.X.% _ _ _ @ #.:.X.& N N :.N . + + @ @ $ $ % $ - - * - i k - $ $ = - - ",
"7 7 - - $ - * $ = , , : * * * # & @ @ @ + X :.:.N N + % :.@ _ _ _ _ _ % 6.@ :.B :.N :.. + @ @ @ @ % % * $ - - - h H i - = - - - ",
"J n b g h h c c b C v d d 0 , - : % @ @ + + N 0.:.:.0.B # 6.@ _ _ _ % #.% 0.N :.0.N N X + @ % : * 5 7 - - g v v J / / H K K ! D ",
"S G v b M K D K K P D C B g s , : % % @ + + N N N :.B @ % % %.@ @ % X.@ @ % N N 0.N 0.X + % & : s k k u i b C J K / I I / ../ ..",
"S 5 y d c S C c x h d d 7 = * # & @ @ + + + N :.:.% @ 7.' [ @ % 8.@ % 7.] ' @ @ N :.:.. + % * : t h t * - i y g c k c c S S K I ",
"D , 5 h B c h t 0 0 , - - $ # # @ @ @ @ + . 0.N @ [ ' [ [ ' ' @ 8.@ ' [ [ [ ' [ @ 0.N X + % % : 5 0 5 * - = - - - 5 5 y t h k C ",
"B - 5 d c c t t y 7 7 - * $ # @ @ @ + + +   N @ 7.[ [ % % + ] [ % ] ] @ @ @ [ 7.] @ N . + % * * 5 5 : * = - - - ; 7 t t t d h h ",
"D 7 5 - i t 0 - - - , - - $ # @ # @ @ + + . @ [ 7.' @ % 4 > @ 7.] ] % | > # @ 7.7.% @ . + % * : 5 : * # # = - - - - - - - - 7 7 ",
"D $ # # * * * & $ $ $ # # # # o @ @ + + + + ` ] [ @ ' [ @ | 4 @ ' @ > 4 @ ' 7.# ] ' [ X + % * * : 5 * % @ @ # & $ $ $ $ $ $ $ c ",
"D k * $ * $ $ * $ - $ $ $ & & $ * * * + + + .   [ [ ' 7.@ 4 > @ [ @ > | @ [ ' ' ]   . + + % * * : d i : $ $ $ * t h k y 5 7 c c ",
"D K C B B d x d v C , - - , , 0 w t 5 * + + +   7.[ [ @ | > 4 & ' @ | > 4 @ 7.7.[   @ X + % * 5 5 t t d d h b C K / P S b v C k ",
"G S S b B x k g Z C - = - , , 0 w t 5 : * * %   + + + + + + + + + + + + + + O O +   @ @ @ % * * % ; ; t t k i c C S b k y - - k ",
"d C g d y - - 0 V g = # $ - - - * : * * * * % @ + @ @ + + + @ + + @ + + + O + + + @ @ @ @ # % $ * - - 5 7 i 5 - , , , , $ # = - ",
"d g d y y - - 0 V y = = - - - * - - : : : * * % % @ + @ @ @ + + + + @ + @ + + @ @ @ @ @ @ @ % $ * - 5 5 w w - - - , 0 : $ $ * - ",
"- g d l y , , y Z y # # $ - - - : : : : : : % * % % @ @ + + @ + @ + + @ @ X @ @ @ @ % % # # * * - - - 5 t 5 - - - - , * # # $ - ",
"- , - - - $ * g Z v # # # # $ $ % * t : * * * * % % @ @ @ @ + @ + @ + + @ + + @ @ % % @ @ # % $ * - - - * - - - , , , $ $ # $ - ",
"d l k k Z Z Z C Z K , $ & $ - - % 7 s 7 5 - * * * * * % # @ @ @ # # @ @ @ % @ % * : * * * * * - - i i 7 , , 5 y b J b g ; - - i ",
"C d s - - - - , Z Z g y y s t i h M S D k d t w t 5 5 : * * * * & * * & * * : 5 s x s i d h h c D / / J v c k b P I K J b b b D ",
"Z i 0 , g 7 , , y y g d i k k k c S H M k t 5 t t w 5 * * * % * * : & * * * 5 t 0 s g g h c M M P &.*.I D M c C b b b v k k k b ",
"g t s d k y , - - - , y s t i s h h h d - * $ * , % * * % % @ $ * * % % * @ * * * - , , s t t t b / / D c k i s i i y 7 5 7 7 7 ",
"y , s t d y , - - - - 7 - 5 i t i t ; * ; $ * - * * $ $ % % % = * * % # % % $ $ % - - , , , 0 s c P P c h d d 0 1 , 5 - - - - $ ",
"t , , 0 d t , , - - - 5 - ; 7 ; 5 * % - * * - - : * : * : * * * * $ % % % $ $ $ - - 7 5 9 , 0 i h S S x h h d y 7 - = = $ $ $ $ ",
"0 s 0 * * : - - - = $ $ $ - - - * $ $ * * $ $ $ $ $ $ : * * * * * * * * * * * * - 5 , , , : 5 y b M C i t y 7 , - - - $ $ $ $ $ ",
"0 0 0 , : - $ $ # # # $ $ $ $ - * $ $ $ * * $ % $ $ * : * * * 5 * * - * * * $ - * = % s , s - t n b b b 7 y i - , - - - $ $ $ $ "
};
