/* XPM */
static char *_a06f8e61033441fa456997569cbbc734GajZCfcpN8qbbn3[] = {
/* columns rows colors chars-per-pixel */
"64 64 179 2 ",
"   c #0E0C0C",
".  c #120E0D",
"X  c #15100F",
"o  c #140E11",
"O  c #1B0E1E",
"+  c #161212",
"@  c #1A1515",
"#  c #1E1817",
"$  c #171419",
"%  c #1A1719",
"&  c #1D1A1B",
"*  c #201515",
"=  c #201817",
"-  c #21111F",
";  c #211C1D",
":  c #0D2C1C",
">  c #10231F",
",  c #0E321F",
"<  c #25201F",
"1  c #1C0B26",
"2  c #1E0D29",
"3  c #1D1223",
"4  c #1F1E20",
"5  c #1F102B",
"6  c #200F27",
"7  c #220E2C",
"8  c #231525",
"9  c #221E21",
"0  c #23142A",
"q  c #28142F",
"w  c #251B2B",
"e  c #281B2E",
"r  c #2A0E37",
"t  c #2C0F3C",
"y  c #251432",
"u  c #2A1635",
"i  c #2A1933",
"p  c #2B103A",
"a  c #261C3D",
"s  c #2C1B39",
"d  c #30133C",
"f  c #102420",
"g  c #1A222E",
"h  c #0E3120",
"j  c #103122",
"k  c #16392D",
"l  c #1C2634",
"z  c #1D2B34",
"x  c #1A3632",
"c  c #1F343A",
"v  c #242223",
"b  c #292526",
"n  c #272528",
"m  c #2A2729",
"M  c #2D2A2B",
"N  c #312D2E",
"B  c #2D2232",
"V  c #2F2C30",
"C  c #202738",
"Z  c #322E31",
"A  c #382F35",
"S  c #34243C",
"D  c #22363D",
"F  c #353133",
"G  c #393536",
"H  c #373639",
"J  c #3C3839",
"K  c #403D3E",
"L  c #13442A",
"P  c #14492D",
"I  c #174130",
"U  c #174D33",
"Y  c #184F34",
"T  c #1E443B",
"R  c #165132",
"E  c #185034",
"W  c #1F533B",
"Q  c #20403E",
"!  c #1E643B",
"~  c #300F4C",
"^  c #2E1140",
"/  c #2B1F46",
"(  c #331445",
")  c #36154B",
"_  c #39154E",
"`  c #371A4B",
"'  c #3B1C4F",
"]  c #350C52",
"[  c #351254",
"{  c #3A1255",
"}  c #321D54",
"|  c #3E135B",
" . c #361E5C",
".. c #3B1D5F",
"X. c #322141",
"o. c #223642",
"O. c #2B344C",
"+. c #352558",
"@. c #372B59",
"#. c #333758",
"$. c #3D2261",
"%. c #3E2966",
"&. c #3F3168",
"*. c #41165E",
"=. c #42185F",
"-. c #410F64",
";. c #410F64",
":. c #470F6F",
">. c #450F6C",
",. c #441567",
"<. c #441466",
"1. c #441961",
"2. c #47156A",
"3. c #44146B",
"4. c #48156D",
"5. c #49166D",
"6. c #49156D",
"7. c #431D6C",
"8. c #491A6E",
"9. c #460F74",
"0. c #4A0F75",
"q. c #431670",
"w. c #4D1075",
"e. c #4D1276",
"r. c #4A1B71",
"t. c #4E1478",
"y. c #4E157F",
"u. c #4E167C",
"i. c #4E147C",
"p. c #4D1A7E",
"a. c #50147A",
"s. c #51147B",
"d. c #531A7E",
"f. c #412364",
"g. c #41206D",
"h. c #41206D",
"j. c #412C69",
"k. c #43376E",
"l. c #234042",
"z. c #274C46",
"x. c #334B58",
"c. c #226E44",
"v. c #29624A",
"b. c #257747",
"n. c #247747",
"m. c #247847",
"M. c #247847",
"N. c #257649",
"B. c #3B4E64",
"V. c #580F8C",
"C. c #4E1281",
"Z. c #541383",
"A. c #571385",
"S. c #551384",
"D. c #561982",
"F. c #56148D",
"G. c #55158C",
"H. c #59138A",
"J. c #571491",
"K. c #571491",
"L. c #5F1594",
"P. c #5E1592",
"I. c #5F1892",
"U. c #5E1991",
"Y. c #611596",
"T. c #611596",
"R. c #601A91",
"E. c #63179C",
"W. c #64189A",
"Q. c #671A9E",
"!. c #66199D",
"~. c #681D9E",
"^. c #512180",
"/. c #6410A0",
"(. c #6C18A7",
"). c #6B18A5",
"_. c #721CAF",
"`. c #751AB5",
"'. c #7A1CBD",
/* pixels */
"# ; = ; ; & & # # ; % @ + , + @ # & & % 9 ; @ E X X X + @ # # & & # = < & # @ $ M.+ + $ & > v v m v v b v v & + @ E @ @ & $ & ; ",
"# ; @ @ ; & & ; # # # + o E E M.& # & % & # E R . X X E @ @ # # ; = # = & & % , R M.M.+ # ; v v v v v ; 4 & + + + E + # # # # & ",
"= * @ @ ; ; 9 & ; ; @ + 3 z E R n.% @ + s.a.h.=.O X E R + @ @ # # * # # @ + % h R R M.$ & & v v v 9 ; # & & # @ R R # @ # & # ; ",
"= * @ @ # ; & # & % 0 d.D.Z.[ + @ + p 4.q.0.R.~.d.  R R E @ @ @ # @ @ X + + $ , R R R M.# 4 4 9 ; 4 & # & ; # , , R M.@ # # # = ",
"; @ @ @ + @ @ @ + 7 i.W.t.;.y.5.. . !.2.<.;.s.Z.H.y.T E E X X + + + + . +   , , & $ R R # % % ; & # # @ # v > E , R M.@ # @ @ # ",
"# @ @ + + # # @ + *.).-.T.C.w.U.( 2.C.i.9.K.Q.>.t.`./ E , + + X + + . .   + R + + + $ R @ ; % ; & & @ # & v R R + E M.@ # + + + ",
"; # & # & b v ; ; u K.-.A.Y.i.Y.( ).Y.Z.Z.(.H.;.Z.G.X + % h & & $ $ $ M.M.M.R + + % & ; ; 9 < > & ; < v n E , v > = & M.; # # @ ",
"< & ; & ; v v b.m.c.+.W.V.H.`.6.v w L.Z.G.H.q.;.i.>.@ & # E E & & & M.R U R h 4 y % & b.v 9 v < g < v 9 E < : & ; ; @ # ; ; & # ",
"< # # @ @ + M.R E E P $.G.[ 1.a < > q.'.E.0./._.| X @ m.+ # E @ @ # M.E E z p.D.Z.) + & E M.M.R & , h b.@ a.t.,.*.O + @ @ @ * @ ",
"X X X X +   R R R E , $ + + % # , n.z.$.2 y.U.{ T R n.X X X R + + + R R 5 i.W.t.<.u.2.& ; E R M., E E O.r.4.9.U.~.D.o + * @ @ * ",
"X X X .   R   + X , , + @ + % @ n.R R , E + + E R P M.X X R @ + + # E + | ).>.T.C.0.U.) & , , , @ # L Q.2.,.<.y.A.H.s.8 X * @ @ ",
"X X X         + E X , X o X X o b.R . . E E E E M.m.X X @ R X X + + +   7 K.-.A.Y.i.Y.#.E , X X o + 4.i.a.9.K./.>.w.`.( X @ X X ",
"X X X X       R E + R M.m.R X . @ X @ @ + R M.M., , X X R R @ + + + X   + ~ W.A.H.`.8.X + @ + X + X !.L.S.Z.(.H.;.C.G.X * * @ @ ",
"M b # @ + $ % R v < , R R m.& ; > v < b v v v v , E R E j ; ; v v & & & $ P &.G.[ ..a v 9 v n m m 9 3 P.A.G.A.0.;.i.3.v v M M b ",
"m b # # $ @ R h < < , R R R Z N V V N b m b v v b v v < < > M.M M g v M.E R & & ; n Y M M M M N Z m 3 q.'.L.i./._.| v m M N F M ",
"m v @ X + + R + + @ R # g E n M M b < < = # & @ & M.# # @ @ # M.M.& R R M.# & $ # 4 9 E 9 ; & 9 n 9 9 0 | 1 i.U.{ 8 & # & ; < v ",
"M < + + . . M..   + R + # & # 4 4 & = # * @ @ @ R R m.# @ + # R R R , R E M.+ + @ @ @ & R @ + $ & 4 & % X X @ X R @ @ X @ X ; b ",
"v < + + + + R M.M.+ h R + + + a.s.3.=.8 * ; = = R m.R ; & & g 4 , $ @ E R M.@ + + @ @ @ + R + + $ 4 & $ @ @ b.b.R P X @ @ @ * b ",
"v ; + . + h R R M.. o R R p 5.4.q.R.~.D.@ = ; = m.m.; < 9 v v R , $ + + R R M.X + + +   + R R + $ & $ @ X b.M.R R , R X + + = v ",
"v & + .   R h R M.. o   L Q.,.<.;.s.A.P.t.e ; E m.< < < v v E E g % X X X X E o             M.  @ & @ + X M.R R R @ R @ @ ; v b ",
"M & # & + R $ + R M.+ + 4.C.i.9.H.E.>.0.`.( E E N N N b v n R n < < # + + X X + + X     M.M.R h $ & & & & M.R R h $ E & # # 9 v ",
"n v v # $ R % % & & M.+ !.L.Z.Z.(.H.;.s.H.L E m F G M v b n , M.N M v v g & # & > # & M.R R R h R % & f M.M.R , g 4 , R & b m M ",
"; & > = M.R + + & $ $ o O P.A.G.H.0.-.i.3.; g ; N N b m.m.R , E ; 9 a.a.7.1.4 $ & & & R R R R $ R + % & M.R v g < # & R & v v m ",
"@ # + M.R R   + + $ $ + o 9.'.E.0./._.| L R R # b Z v m.R R , E x.4.4.6.U.).D.+ & $ M.R R R + $ + R + + $ & & & ; > + E @ @ % & ",
"@ @ m.E E R , X X @ $ + + 3 { 1 y.U.{ 3 @ @ , M.< b E E R , , : Q.5.2.;.s.A.H.y.5 + $ N.R & + + + R + + @ # & & ; & @ E + + & & ",
"# @ R E , , M.X X X @ @ @ + @ @ $ o + + @ , M.E E > = * @ h @ 4.s.a.9.G.E.>.w.`.p . + N.& + + + + E + + % # % a.a.,.1.T @ & & # ",
"> @ X + X M.R R . + + + # # & # + @ + + @ m.R R R < * @ R R X W.L.Z.Z.(.H.] Z.H.. + + + + + + + R R M.+ + r 4.4.6.R.~.D.+ % $ & ",
"v $ # + + M.R R + # ; > b b n v 4 & # # # m.R E , N b # R @ + 1 L.H.G.A.0.-.i.q.P v ; # $ + + @ , R U M.+ !.2.2.;.s.A.P.y.w & 4 ",
"M ; v ; b.R E , h R v b N N Z R b v v g n.R N A F , Z b R b m n q.'./.0.E._.| L b., R < > & & < R < R P q.Z.a.0.F.E.>.0.`.` m M ",
"M v 9 > ; R E , & R R ; < R R R R E M.v < b M N b R v n R M.M.M.S 1.l i.P.*.T Y R b., R v < v < R g v L E.L.Z.Z.(.H.;.i.G.! v M ",
"< & & & # m.j @ + + @ R R E R R M.M.& & & g < ; < E ; & , R R M.M v R 9 & < E E E b.; = R ; & & R & & & 3 P.A.G.H.0.-.i.3.c.# ; ",
"& # # & # + @ + + + @ @ R m.m.m., & 4 v v < < > > E ; ; , R R R n h & # ; # , R b.< ; ; ; U # & R & g M.W q.'./.0./.`.| ! % # # ",
"; 4 & # @ & # @ @ @ X @ X # , , & # > g v v M.M.m., ; ; E > R E Y , # # # = ; R R v ; < ; ; , & E R , m.R c | 5 p.U.| v.# # % # ",
"v ; < ; ; & & # X @ X X X X X , E = = & & M.R R E , # # R # # @ & E @ @ @ # = = # % ; = = = , m.R , m.R R R & & 4 $ & # # # # + ",
"v 9 ; ; ; & ; ; < = # @ # X @ M.E , R $ + R R R , E M.@ R @ X @ @ , + X + + @ @ @ @ @ @ + @ n.R E , , & E & & & & 4 4 ; ; = # ; ",
"N N M m M M M M Z F M b v b M.R E n U T y % $ & R R M.X P @ @ @ M.E & # # E m.m.v v = + @ @ @ : ; < > # h & & & v n v v ; v ; v ",
"m m M M M N m R R F Z M n g m.E E ;.D.D.Z.) 3 , , R R X R # = M.R E v h E R R , V m # # @ # , Y * # @ @ R # & & v b 9 ; b b ; b ",
"b b m m m b N.& < b M > 4 4 E R w y.W.t.-.u.h.E E + R X R = < R R , M.M.M., , n B 9 @ @ 8 0 E @ @ X X @ R R M.M.; 9 ; = ; ; 9 b ",
"b m m M M.M.M.& & < b < & & & & *.).;.L.C.i.U.` % +   X @ P ; ; > ; R R R M.& n M 9 8 d.Z.Z.@.@ @ @ m.m., R R M.; & = = ; < b b ",
"n b b.R R P p.u.3.1.e ; & & & & u K.;.H.L.i.P.` & +     @ , ; ; ; ; & R R P & v M s s.W.t.;.t.5.# m.m.R R , @ # N.9 * * = ; ; b ",
"; v ; R O.8.6.:.R.).D.& R U E E U } W.H.H.`.q.% & + . . X X R @ # X . . a.a.7.1.i 1.).<.Y.Z.0.Y.( M.R R R , R # & v # + @ = ; < ",
"; v ; # Q.2.-.-.s.Z.U.p.T + @ @ + + *.G.] %.y & & & + X @ + E @ + @ r 6.6.:.R.~.D.s K.-.A.W.i.Y.B.R R R R # R R v m < # # = ; ; ",
"F N N 6.C.s.0.F.E.>.u.`.( < v v v v v 4 9 N.b M F F b ; ; R m.v b 9 Q.2.2.-.s.Z.P.t.[ Y.H.H.`.w.v E R , & v v R , F Z b M N N N ",
"F F b Q.Y.Z.Z.(.H.;.s.G.n M M N M N M m M Y n.A G F m M R m.R , A r.s.s.9.K.E.>.w.`.a $.H.+.k.s M.E , v < v b b E , , V F F K K ",
"F v v w P.A.G.A.0.-.0.3.9 9 9 ; v v & # & m.m.m.b < = < m.R R j b ).P.Z.Z.(.H.;.Z.H.& g ; n.b M m b ; # # & & < < < b.R b m Z H ",
"F v ; 9 9.'./.0.E._.*.k ; = = @ a.t.3.*.- E E m.; = ; ; m.R R v : w Y.H.Z.H.q.-.i.q.P U & & > < v > & + + + + # # b.R R < < n M ",
"M ; & v i | D p.P.| 8 % = = d 4.4.>.R.~.D.P ; ; E ; ; < R R < v m k 9.'./.e./.`.{ + & M.E R v g 4 & $ + + + + + # M.R R , > v b ",
"F & < = g M.E I : @ # % @ @ Q.2.<.;.p.H.U.p.0 # ; ; ; ; m.; ; v m E g +.5 u.U.{ w $ $ R M.& E 4 & E M.. X , , X M.E E , E # & v ",
"F # @ + @ M.M.h E h R M.c.8.p.i.e.G.E.>.e.`.^ % $ % # # # + # > R R j R # % # ; & & + E m.; , R & $ R M.M.,   X M.R X + R @ # M ",
"F b & @ # R + + + + R E L Q.Y.Z.Z.).H.;.Z.G.& 4 v 9 4 & & # & , F F b E E < v b n n R E m.> & R & & R R R M.E $ % $ & E R & M M ",
"F F M m n < g 4 v g @ , E x P.A.G.A.q.-.i.3.M F F F V h M.R E N J J N b E E M M M F M M.b b v , & > & % R R , : p.p.7.f.B b M M ",
"F F F M b < ; < v v @ X + $ 9.'./.0./._.| n Z F F M.R E R R , m M M b b > E > v n n v ; # ; & % E % % % & & ( 8.8.4.U.Q.D.& < M ",
"m M m v ; # @ # ; & X . + + 5 { <.i.U.| V M M V M.R R R , , M.M.; ; & & & + R @ & & M.M., + @ @ R + $ $ @ $ !.3.3.;.s.H.H.y.e ; ",
"m M b < ; # + M.M.M.X   o + + , M.L & n M V V M M M b v g , E E m.# & & @ @ R R @ R R R M., + # E # % % & 7.C.i.9.G.!.>.a.`.( ; ",
"< m b n ; & M.M.E R R R E E j n.E & g n V V M V M n n < # , # % Q i & ; # + + R R , R R R M.+ E , @ @ $ + Q.I.S.Z.).H.;.s.G.@ ; ",
"; v & ; & + M.E R R E , , . . b.E & < n n m n m v v g # # R w d.D.Z._ @ + + X + + , $ + R M.X , X X + + + x P.H.S.H.0.;.0.>.# ; ",
"b M M m M b.; > > , ,   X + M.R E ; v b M M M b m b n b.m.l.C.W.t.-.t.8.% % @ # > E ; + N.+ X , $ . M.M.E > q.'.E.0./.`.| % 9 m ",
"N M v & # @ + M.R E & # $ & , , v M N F F F F N F F N b.E j.).;.Y.C.i.R.' v v v m E R < 9 > & R $ M.R R R + l &.l i.U.*.Z N N Z ",
"N b n & v # M.R R = # & ; , v g v M N N M b N M M N M b.R z K.;.A.Y.a.T.' v v v v v , n b v ; E $ M.R ,   + + h v v v N M m M N ",
"b n n n m ; M.R R , E R b., > = v R v > < ; = < > ; M.E E % } Y.V.H.`.r.@ + & $ & E # 9 9 ; % j R M.R h   o , h 4 4 v v 9 v 9 9 ",
"b < n v b m.E R , R , R E b.= < E R # & # = ; ; = ; # # & $ + $.G. .%.o.@ + @ + E , & ; 4 & & @ $ m., E E E E M.; ; ; ; ; ; ; # ",
"n v v v v v E # # & , , b.b., R E $ @ $ ; = ; ; = ; # % # # # & : @ @ @ M.% @ # # ; v 9 v 9 9 ; > & # + $ # R R n.= = ; = = # # ",
"v n n # ; ; # @ + + @ + M.R @ # @ + + @ # # # # % % @ % & & & & R h % % & & # # ; ; 9 9 9 4 & > b v < & % & j R n.; ; = # = # # ",
"v v v 9 ; > & & + X X X @ + @ + @ @ @ @ ; % @ @ # % # # & & ; & & R & @ & & # & # ; & n v v v v M m m b ; 9 9 R R ; ; = = @ @ # "
};
