/* XPM */
static char *b7c65319f37f4ec8b9b70fcc311038343oQNNjsQEqGhIR6W[] = {
/* columns rows colors chars-per-pixel */
"64 64 84 1 ",
"  c #323F34",
". c #2F4435",
"X c #2F423A",
"o c #2F483C",
"O c #334535",
"+ c #354A36",
"@ c #384C36",
"# c #32453A",
"$ c #344B3A",
"% c #394D3A",
"& c #375137",
"* c #385037",
"= c #36513C",
"- c #39533D",
"; c #3B593F",
": c #324740",
"> c #354D40",
", c #3A4E43",
"< c #365342",
"1 c #3A5642",
"2 c #3C5B44",
"3 c #3C5749",
"4 c #3C5B49",
"5 c #3C5C49",
"6 c #3D5F49",
"7 c #3E5F48",
"8 c #3D5D4A",
"9 c #3D5C4B",
"0 c #3E5F4B",
"q c #3B5F50",
"w c #3E6145",
"e c #3F6347",
"r c #3E604A",
"t c #3F614A",
"y c #3D624D",
"u c #3E624C",
"i c #3F614F",
"p c #3E634F",
"a c #3E6150",
"s c #3E6351",
"d c #3F6351",
"f c #405D45",
"g c #405D46",
"h c #415E46",
"j c #405E47",
"k c #405848",
"l c #405D49",
"z c #415D4A",
"x c #415F4A",
"c c #435F4A",
"v c #405F4F",
"b c #426246",
"n c #416048",
"m c #43604A",
"M c #42634A",
"N c #416448",
"B c #40624C",
"V c #43634D",
"C c #41644D",
"Z c #42664D",
"A c #45664F",
"S c #45684E",
"D c #45694F",
"F c #49684F",
"G c #406350",
"H c #406453",
"J c #436552",
"K c #456450",
"L c #466750",
"P c #466755",
"I c #496753",
"U c #436951",
"Y c #456953",
"T c #446A53",
"R c #466B53",
"E c #466B54",
"W c #456B56",
"Q c #466C57",
"! c #496B55",
"~ c #496B56",
"^ c #426758",
"/ c #456B59",
"( c #476B58",
") c #496B5A",
/* pixels */
"nnxx==&-2yn224;3--%;%k-%LBLB+X#O>><=adda0v08<---BBBn##o$ZUEP$%+$",
"jnxx&=$=wya282;1-**;%%%-LABxO##.<=$=aayac000---1ZAyNo+$+UUEL$%@@",
"xcnx&@==8ynn1k;3--*;%%<-wLAmO#OO$>$=yddyB08c<--1nZZN$+$oU//L%@%@",
"xccj-===2nyn1k-k---*k;1-GZLn@OOO=%=<ydddBGBx---%ZBZN$#o$aEEB;@@%",
"===2w48aAYLnOO O%-@-22282;81;;;-----BGByGGKB-<%-EE/A###$-;;;2xxg",
"1<<<8y88YYELOO #%%%*jBxu81813;k-;3<;BaydGIGG%-%-E/ET%#o#-&@@2222",
"<<=;8488YAALO  #-%%-j8x24181;%k;---<GGGGKGKm-%--EIEL$o#o-*;-822j",
"1=<<4828YALLO#O#*@%%w2244118*;---;;;GyydGKGv;<%%IEEL>#$$-*@*jb2g",
"*--<#>>>BydaGyyy@O@O@O#@KGGL&@@&jZnb2xg2xGyx*2*;E/YUAMMb#O::<2jj",
"--$%$>#$yyayaydBO  O OO#BIGB+@$&nnNLjukx484c3;2gGGULAAFmO##X4131",
"%=%-$>>>yyqypuUyOOOOOOO@GLGL&@$+MmmI2mxy8888k;12^dYUASFNO# #223y",
"==-%#>>%8GG4pZdy@@OOO@O@xKGy&&&=bbbN2822xqx82;;;//EZAAAc>###32;-",
"BBB811<<====uuu8@%-%%<>-#OOO3y4<%$$$####$---xZZZyByy2243ncLK@+$,",
"GGaB13<1=$==nnu2;@&-%---# OO<4y4O+OOO##o-,%-BByyyyaZ4234EFFF+OO ",
"B0GB1111====c0w0&&==%<%%O  O96w2+OO+.#.X@%%-GGydppyd8432SYFFOOO@",
"aGB81<<-==%%qc00-%-%-1--OOOO246u+$+%#XX#*-<-ZyaYpppZ2112AIIc%@@O",
"+@$%%>><@%%@ZZBYxZbZ2Zxuyyyy-==;GPGP;k;j/REE<<<=STdT&$<=E/)P<1;<",
"$@$$%%%$@%%$AaZBjANAnGubyyyy====EEEPhhjb)I//%><<SdpU=$#=E/)P1=;1",
"$#$$$$$=@@%%ZIBAbNNnnGuZyyya@===LYYYjh;h!EE/=><<yEpU&=@=E)))1-=-",
"$@%+$$=$$%%%xAGYZBZAnByByBaa===2GPII2jjj))/T<<==dRZp==+&PPPP4<11",
";;k1=&==OOOO=&&=ZZZy2<1=##.o404qmABm@OO+puyyepUT1==11y82;;11$--=",
"--;;%&@%##O$$&$=aGaN<<1<# O.qy8ymnmm+O++yyGyTpde1===8uy2;;;11111",
";-;;&&&-OO+$==$<ZyUp<<<<OO.oq84ymAAB+O++vyBydpey1<%;868w=1;<<11<",
";;;;&@&@+#O#o&&=Zyda<13=$#O.qyyymncm+O+#8yGypppy1<<=8u22<;;;<-<-",
"!///=<<<<==<+$$$1;k-b;j;nNNZunuy<<><:$#$2y<yoo&&$$$$<<<<+$+$O$O$",
"!EdE=<<=<2<2###$1;1-;2j2SSAEnGnu<,<,###$64y2+@.+$#$$<<><#+O#$O@+",
"////2<<<=<;=++$$----22xbuZZYynn8%<><$##>1w26+.&o$$>$<><<+OO+##OO",
"//dd=<<o<2<=$$O$k%k%b222AAZAnyun<>>%$$##46u1&o+&$#$o<<<1+$$O@@#@",
"y<=<rqq4=&&=<113OO#$xFYIY!!ENLxb%$$<122j=$==222211=4dGdd$@@$%$$$",
"===<<qq<=&=&1433@O @nASY!)!!LNLm$>>$1w;;=%$=nb221==1aT/d$$$$$$$$",
"===<yq6q&+&+3331OOO#LSAn!!!RnnAn$$%*jw2;$-$=2n2w2222d/da$$$$$$@$",
"<;=;qq64&===2111$O@@ASAY!)!RZmbx&$%$;22w==$@xnww<=<=ddda%&$$@@@$",
"##oX31<4GaaEGnuydYBajcjjYEEE-%<-=<3><33<#o:>EE)PqGyx+OO$bbNm2;;j",
"X##O3414J/G^yBuNUaZEjxnjYPEL1k<-<<<<3<8<$##$//)/GayaOOOObnnm;j2f",
"O#Xo3144d//^unuuUUYG2nn8AA!E2%<3<>><<2<<###o!E/EBuaG.OOObAmm;;1j",
"XO.$1211dJGGywuZduZZnn8bYY!L1*;1<<<<=<2<>$#oP!EL8uGn+O+@jmAng3fj",
"%%<=yxbx#OO$ZUyyuyyuZnLLyyxBGPaB%===&=o$<401$O$$%#o+2w22==--@%;-",
"%%%%bbxx$OO.UpEyyyyySYTSZZyGGGJa;=;&oo$$yqyq#OOOO+o.nwwN%%%=1*--",
"-%;$xbbbO.OOYuyEyuyuYZSZynnZaaLm;&-2#o>$40B3@ OOOOo+uuww<%,%1--%",
"%%-=bnn;oOO.ZYnBwwu8ZAZUnbxxPHGK1;-1$>>$1q02#@@#o+#+2ww2<%%$1%--",
"ywwN22j311<1GyGqoo$$ynZn216<YSKKpNANwuyw$<$>BmxBn82v###+11<2@$=%",
"BbNn;2;-1111ZBBBooooZnNn2142nAKKYNAYnyyw$%>=AmmIcn2c#O#O=1;1o%%@",
"ZnZA;-;;1313nuxu&%#$Bbbb2122ALLLGLBEyyyy$$o=BmAj0888##O$11;1@@%%",
"nynngkgg1144uBBZoo$ocxny2122nLLBNNNN2ww2=$%=xAmyyn8x+#.o;;=1@%%%",
"o&o=O$$$LLLG22;2OO#O%%+-NLnn2=112311##O#111=&o++8aad1614---;=&1&",
"$&o$#%##NSZB2w22OOOO%%%%bNnn1;111111OOOO<34<+.O+Gddd12211;;;=--;",
"$$$$o>$>ZBZZ282;OO#O$@%%Anbx;<2&<111OOOO<2<2o.+Oaadd1812;;;k*%--",
"o=$$$$#>AZBu2w2;OOO+@@$%nANu;<&211=1#+O+<<2=++++qssa1123;**;-k;-",
";=1=$%=$%#>#8y4y111;22j;jnn4#oO#o<<#$&++#$#$aa0a4662++$+OOO.<188",
"<==1=-<,#$$#8u98411622;2b84xo##.$o=&=&==#>#%GZaL<141+O$OOOO.8828",
"=;1=$=>%#+#$26a<1611222j008c..O+&o$$+&@@>###GGBx2141++$$O ..8y8y",
";=-1===%>$#$qyq6211;uwn233x4+#+#o&+=$&-$$$$$cGBG2222$++$OOOO<2<q",
"yyBK8xBx+O##6yyywb2NssdT$%@%unBy6111+@O+8xx211;;122<yadd$#$#4<21",
"GLLBxxnnOO.#6wyyw;;wsssd%@+@ZuyA1221$+@+nmmm;111<$=1aydy$#@@<=;=",
"LBZLj2x2#O.O6964wwess/ad@@@@yuuu11&2O$O@hhbj112*&2&%dddR$##$21;1",
"xZBBnxb8OO.o66a2w;wyssay=$@@GGay12*2@$%@chjj;11*===;dGdd%#$$2121",
"@O#%NISF$+%$%++%@OO@;;21T/^JTTEU22j;-&=<@O@O;;g;=o>$aZZTyasss/aT",
" OOOSSSI$#$$$$$%++O@%;<1^^^TTT/Y;2j2-%$<O  @32kj==o=GeZSGGdd/d/s",
"# OOFSSn@+#$$+$$OOO$<116^^/^^TREbb22-%-$OOOOkkjj<>>=ZLepdJdas/sd",
"#@O+ASAF$$$$@%%$+++$1111E^J^J/dU222b$,=-OOO+;jk;oo$=nNpaddJ//^^^",
"L/IP;---<%<%$$O@dUaBd/d/4116112<U/EG#..X&-;<RT/s2;<=2;==-%--==;=",
"PG/E--;1---<+@@@TUEEsssd3331<1;;aTEU$X.o;&-;epdd=-=;<2<2---$<==$",
"/EEE1--=%-%%#@O@sTT//^ad44311<11T/UaX#..&&;;dpdd2==;<111@&---%-,",
"!/)n3--;-=%,%@@@JUUTd/aa4<443111/dEaX.OO-&-;RRda<2==211=---%-%-,"
};
