/* XPM */
static char *_70e97ffad464657a01f977f5e77b842Yff0J1pdoMalBpIW[] = {
/* columns rows colors chars-per-pixel */
"64 64 111 2 ",
"   c #151414",
".  c #181716",
"X  c #191817",
"o  c #1D1C1C",
"O  c #211F1E",
"+  c #1F201F",
"@  c #21201F",
"#  c #231F20",
"$  c #252323",
"%  c #292626",
"&  c #272827",
"*  c #292827",
"=  c #2D2728",
"-  c #2C2B2A",
";  c #312E2D",
":  c #2F302E",
">  c #31302F",
",  c #332F30",
"<  c #2F3030",
"1  c #343332",
"2  c #3A3535",
"3  c #373836",
"4  c #3A3837",
"5  c #3E3738",
"6  c #373839",
"7  c #3D3B3A",
"8  c #403738",
"9  c #423D3D",
"0  c #3F403E",
"q  c #42403F",
"w  c #3F4140",
"e  c #454342",
"r  c #4A4544",
"t  c #4C4545",
"y  c #4E4747",
"u  c #474845",
"i  c #484846",
"p  c #4A4947",
"a  c #4B4947",
"s  c #4D4847",
"d  c #4E4847",
"f  c #4B4A48",
"g  c #4A4B48",
"h  c #4F4B4A",
"j  c #4C4C4A",
"k  c #4D4E4B",
"l  c #4F4E4C",
"z  c #4E4F4D",
"x  c #504747",
"c  c #514A49",
"v  c #52494A",
"b  c #504C4B",
"n  c #534E4D",
"m  c #544C4C",
"M  c #554D4D",
"N  c #564E4E",
"B  c #4F514E",
"V  c #52514F",
"C  c #56504F",
"Z  c #56514F",
"A  c #4F5051",
"S  c #575151",
"D  c #555452",
"F  c #555553",
"G  c #565453",
"H  c #565754",
"J  c #595050",
"K  c #5B5352",
"L  c #5C5353",
"P  c #5B5453",
"I  c #5A5554",
"U  c #5F5454",
"Y  c #5D5654",
"T  c #575855",
"R  c #5A5957",
"E  c #595A57",
"W  c #585758",
"Q  c #5A5B58",
"!  c #5E5958",
"~  c #5D5B59",
"^  c #5C5D5B",
"/  c #5F5D5B",
"(  c #5F5F5D",
")  c #605656",
"_  c #615957",
"`  c #625957",
"'  c #625C5B",
"]  c #635D5C",
"[  c #665F5E",
"{  c #60605D",
"}  c #61605F",
"|  c #60615F",
" . c #615F61",
".. c #656361",
"X. c #646462",
"o. c #656664",
"O. c #6C6161",
"+. c #6B6562",
"@. c #6D6665",
"#. c #696865",
"$. c #6B6B6A",
"%. c #6C6A69",
"&. c #706766",
"*. c #736C6B",
"=. c #72716F",
"-. c #777673",
";. c #7A7371",
":. c #847C7B",
">. c #575757",
",. c #575757",
"<. c #5A5A5A",
/* pixels */
"@ O O O O ; 9 x ; O O O ; ; ; ; = 1 1 ; @ o @ @ = 8 q q 0 0 0 $ & $ $ & & + & 6 - > & o % u ' ..O.' c u = * @ : V q + + + @ @ @ ",
"@ $ O $ 8 9 x x J 8 = = 8 2 1 = ; ; = = 2 @   @ @ ; q q 0 : $ $ $ $ & & & + $ & * $ @ 1 n U n r U J U +.s 4 q } } ^ T : @ @ $ @ ",
"O O ; 9 9 x 9 x J M = O $ @ @ $ % @ @ @ 2 8 @ @ - @ q 4 & & & + & $ & & & & + + + @ = q I h e t q c r J q - q Q #.T ^ $.$ @ @ @ ",
"O ; x x x x 9 9 9 U 8 O 9 1 t c q q q 2 @ q 1 X @ @ 1 @ $ + & $ $ $ $ $ & - & + * q V n p r t J c M 9 5 q - u k R Q } } P > @ @ ",
"9 9 q t 9 9 9 x M L e = &.} :.&.+.&.*.` @ = 8 O @ @ @ @ = * & & $ $ + + & - - & 2 l F r 9 x 9 2 ; 1 = # ; = 0 q Q ~ Q Q ~ s $ $ ",
"9 9 9 8 8 8 8 8 c M M = P J ] C P } ` } q @ = 8 ; 1 @ @ @ @ & & $ & $ $ $ & & & 1 ; > ; , , = ; ; ; ; ; 2 = - V B g p g u 1 = - ",
"2 8 9 8 8 8 2 , 9 x ) 2 9 } [ +.` &.` ` q ; ; 8 q q @ @ @ @ & $ $ $ + + + + $ & = ; ; ; ; ; ; 8 8 ; 8 2 2 - $ q q e 7 - @ > > - ",
"= 8 8 8 2 2 8 ; 9 e x 2 ; *.J U ` J U 8 @ 8 q 1 8 q q @ @ @ + + & $ $ $ + + o & $ ; , , 8 8 1 2 ; ; = = ; e @ 4 F - $ - 1 > 2 1 ",
"= 2 9 q 8 2 8 8 8 8 M 8 ;  .) ) U U 8 = 2 8 8 2 , 9 e , o o o O + + + o o   . $ + & o o O # $ O @ @ @ % > > = 1 * > > > 1 1 1 4 ",
"- > > 5 5 5 2 2 2 1 c x $ x ) [ ] 2 $ 2 q 8 1 8 r 5 5 7 ; o . $ o o o X o o $ 6 & < 9 y 7 2 9 J q 5 = $ o @ @ @ - 1 > 1 1 > 1 1 ",
"= - = > 2 2 5 5 9 2 x ` % 9 [ M q $ = 2 > 2 8 1 , 1 5 w 6 $ . . X o X o # 1 w w < $ 5 e b ;.+.c &.@.P C s p s - * > > 1 1 : - - ",
"- ; - ; ; ; 1 2 8 = 8 t = 7 U 9 = = 2 2 ; > 2 > ; 1 , $ $ ; ; $ o + + & w i i 5 & $ - $ % e j n s U M +.+.+.X.$ * > - > > - : & ",
"> > > > > * = ; % = $ % ; 1 e - 2 1 ; 2 9 , = , ; = # % ; 2 9 t 6 < - 5 p A g 6 < < % % - $ - u s U k C c J X.- $ - - > - - - & ",
"> > > 2 > = % ; 2 9 ; % 1 = ; % 1 q 8 1 8 8 = , # # ; 9 x t 9 9 0 6 ; e t A j 6 6 0 + $ 7 1 - % > q p p e s J 6 o - > - * % & - ",
"> > - - - * r *.] ' 2 1 1 1 % = % ; 1 = = = ; = = 2 8 9 9 9 8 2 7 , - r g g A 6 < A 5 o o - 1 , = > 2 p C F k 9 @ > - - & & : < ",
"> > - * > I J ! ' t $ 2 ; 7 % 1 = . . # % = ; # 2 9 9 8 2 8 9 9 7 5 , e e g g 9 - g X.- + % - - 2 ; @ * 1 9 ; * % ; & % & < 1 1 ",
"> * : 4 } P P C h - ; 1 1 ; % 7 0 7 & + $ & $ & 1 2 1 1 2 2 2 8 e , * e u g B 1 < u g 7 & + - & - > = * - * * * @ @ * * 1 3 1 - ",
"* - > C P P C V ; = > 7 > * 1 q e 0 % $ $ & = & * > ; ; ; 2 8 2 7 - ; e g g h 1 - u l l - X $ % @ @ = - * * * * - $ * * + $ % - ",
"* - R ~ ! ! C > = 1 1 2 * $ 0 e e e % o # & $ & % * ; > 1 2 8 8 1 - < 7 e u l 1 < u g l 7 & $ $ @ * = - - = * = > o $ - * & $ + ",
"* 4 C V n ! 1 ; 5 6 1 1 * ; u 4 9 g % o # $ $ & * = - > 2 8 2 2 * = = 6 5 u l - 3 0 6 k u $ + % - > - - - * @ q 7 o o & & * - * ",
"* ; 9 g ! s * - 1 ; 2 ; ; e e 3 w e 1 . + # $ & * * - * ; 1 , = % $ % - 1 u A 1 - l 0 1 - - ; $ 2 * - = * - q q 0 o o $ + + $ - ",
"% % 1 u 7 1 ; 2 1 ; 2 * ; u 7 9 w e 6 o + + + $ & & & * = - = $ $ $ $ = * 7 n 1 * g 1 % 1 c n % @ * - - @ 0 u q 6 + + $ + + + + ",
"o % * - ; ; * 1 3 4 ; * 1 6 7 p 7 9 1 o o o + + $ $ $ % * * % $ % # $ = $ 1 u 1 1 - % u ! k l 7 @ = - * q q q q 5 $ o o o $ O @ ",
"$ % % g >.4 % $ = 7 % = e 7 6 9 5 5 < o o o o + + + & % % % $ # % $ % % # = 7 1 # 3 h ! k r J 2 @ - - q q q q 4 & $ - $ o + + + ",
"& e * g ^ X.=.> + 7 $ 7 7 9 7 2 e & $ & $ + o o o o + $ - # o O % % % % % % % % p k p F r r 1 % 6 3 * 4 7 - - & & $ < & - + o $ ",
"6 6 % k ^ A X.X.* @ > 1 9 e 2 e 6 # + $ & $ + o o o o o # o o o O O # # O # O % 1 V u 6 k 7 1 2 9 1 % $ * - 6 I - $ < < < - $ < ",
"4 4 - u Q Q R -.%.> 0 u e q 2 q & $ # $ $ & & # + o + < 8 , #   . X O O X $ 1 e - o u V e % % 4 * @ $ % e F T  .< $ < - - - & < ",
"1 6 * 0 Q o.B F =.p @ u 8 7 e 9 & $ + $ $ $ & & # + - 6 9 t 9 ; O O # # , u g n B - 1 7 - 1 u ; $ @ o $ 2 H g l < + & $ $ - $ & ",
"4 0 & 7 ~ H A F %.X.o 7 e 7 s 7 # + + + + # # $ $ & , 5 5 9 9 t 6 % 2 l h S l F p e @ 4 > @ > $ @ @ $ @ - 0 u ~ < o o X $ & - $ ",
"* 7 & u Q Q o.Q R H - * 7 1 > = o o o o o o + # + & , 2 , 5 8 9 e = e h g h r g B * 0 <.#.q @ + + @ @ @ & 6 6 e < w w 7 A W ( < ",
"& - - g F Q g 7 * * - + $ - - 1 o o o o o + # # , - = , 1 2 , 8 2 % 6 e 6 0 u g u $ D ~ T ,.4   * @ o o + & $ & - l o.| X.o. .A ",
"u $ & g B 7 + & - > 3 7 @ 9 M @. .6 = & # - < 6 6 2 % , 2 2 8 8 6 % 7 9 e u u u & V D T X.H =.7   o o * 1 < 6 6 & 6 X.W W Q X.} ",
"Q q - - : & < 1 0 3 3 1 1 1 I ! ` q ; ; ; ; % ; ; 8 ; = ; 5 2 , % = ; u e e p g & B Q Q } ( ' } 8 % - 1 < < 1 < & - < A o.W A %.",
"( =.& - : : 0 < - > 1 2 1 - b F ` U ; = ; ; * = > 8 > = ; 2 ; = $ % % 5 9 9 u e : D o.^ ^ X.k p 1 $ 1 1 < - < < & 6 6 < 6 W  .A ",
"u * & & - : $ : : - > 1 1 * p P ` ` 8 ; = ; ; * ; 8 2 ; ; ; = O $ % $ = > 6 q 3 1 R o.B u 4 - ; 6 & - < 1 < & - - g A 6 < < w j ",
"= - B & $ & - - - : - - 1 > 5 ! U O.q = = ; ; @ = ; 8 1 = O # O $ % # $ * > 6 : g e : $ - 2 2 2 9 & o & < 6 $ - 6 g W  .j < - 6 ",
"q } ( k * & % - - : - 1 > ; * s ` O.J = * @ - * = @ 2 1 % O $ $ @ $ $ % $ * - - $ - 3 7 e q > ; - & $ $ + & - p A g 9 A $. .7 # ",
"p F Q R k o $ & : : : - - - * V q q ; = * * = = @ @ = @ $ $ $ O O @ O @ @ @ - - - : 1 1 * = * * $ % 5 5 - ; - 7 D A 9 7 r r 6 , ",
"4 7 V I F B + & - - - * = - = q q = = = ; * ; = ; * @ = O X o $ $ O o @ @ $ : 1 - - * * $ $ % % $ = e r i e 5 - 9 e 9 1 & # = 2 ",
"u 9 g D H F - & $ & & - > > - * = = = = = = @ = ; @ = 1 #   o X O O o % - : 3 - : - $ $ $ * * $ $ $ 5 7 w y j , % - = # & - = # ",
"6 7 6 u R } p * : 0 > 0 1 * - q @ % * * @ * @ @ $ o % g u 6 o   O O 1 1 , * * - 1 = & $ o $ $ $ @ @ 2 8 w 8 e 7 $ $ $ = $ o % % ",
"> r 3 u p 0 Q $ : 4 4 3 @ > C c 8 @ @ @ @ @ @ @ % - e V S e - 7 % O = $ * % - - 3 $ o $ * * @ = - % 1 ; 8 9 e 2 # # # $ $ # $ % ",
"$ - e 4 7 B H & @ @ * 1 * q s q q q % @ @ @ * % o i l A n 2 1 H 2 $ = O & % * % 1 - $ o $ $ @ @ @ = 9 2 2 2 7 ; # $ # # $ $ o 2 ",
"! - : 7 w 7 $ & : * @ - > u 4 V q q = * ; % = ; $ h n g g < 7 Q 9 % = $ = $ % $ * 1 =   @ o o O * @ $ $ 2 9 9 $ # $ # $ $ $ $ c ",
"l F & % & 7 - o @ : : @ - q q q q 0 @ & * * % * & w A h 7 1 j A 1 O = = - % = % $ % $ X $ o @ > u 2 1 @ = 1 , # # # $ # $ = q p ",
"Q 7 1 B ^ Q : F : @ : 3 - 4 q 4 q > @ $ * @ % @ & 6 D g 6 w A D = O = = % % - = % % % @ % * > q q t T q ; - % O $ $ # $ @ 8 V h ",
"u $ T D Q X.: 0 =.0 = 1 @ q C q H : $ @ $ * * $ & 1 l e 6 u A W > X $ % % $ * * % - * % % 1 4 6 > > q r U c 9 # O # $ $ - n C k ",
"g * T B T T F : } =.3 @ @ 8 q q q @ & @ @ $ $ * + 1 e 6 6 j W W 2 X $ % % % = $ % $ $ ; $ % * 4 q > 2 > 8 9 9 ; O O # $ e k V p ",
"; = 2 c J [ S ; T T R q @ * B 6 e # # # & & $ - $ < W < j W W w $ O O $ * % % % @ $ $ - ; > * * 1 7 - 1 4 4 * - @ @ @ q n q 2 4 ",
"n e 2 = 6 X.H 1 F ( X.P r - 2 p 7 # # # $ & # - & < e - 6 6 , = ; $ X X $ @ + @ @ O $ * * - > : $ > 4 2 = = @ * * = - 1 2 > 4 > ",
"U t U k = - e 7 6 D u u p - - 4 - o + # $ < - $ - < < - < 6 6 w p = o o o o o o @ @ $ * * * 3 * - * > - @ @ - @ * = - = > 8 q q ",
"c J M c t 1 % - - 1 * @ - = $ * - + o . o # $ & # - < w w e w i h u 1 $ X o o % p 1 $ @ * - > * > @ @ @ $ * - = @ * = * - c J J ",
"U e x m c ! r # = - > - * - * % - - & $ .   o $ & 6 w j e i w w u r u 9 & - e F R I : $ $ * & $ @ * > @ $ @ @ $ @ = = @ - 9 c c ",
"h U M c ' r ; = = * ; - * ; * % & < 6 9 < + + $ 7 A e e 6 e w w q e g e : 7 g B R Q k o $ $ + & @ u q @ @ @ @ @ @ @ @ = % - q c ",
"U r x ` x 1 % # * $ = % * = % % < - & < 6 < 6 $ < w 6 w w w w 6 7 7 0 7 & 1 u u k F B 3 $ & - : 0 R k - o $ O $ @ @ @ = = ; q m ",
"9 ) J x 5 - % = * = - - * = $ % & - & & < < < + - < & - < < < 6 6 3 3 3 $ 3 u u p g T p 3 : A Q u k h q o .   o @ O @ @ = 1 8 q ",
"1 4 q q @ = = = - - > - $ @ * ; - & - < & < - & o $ & & - - & & 3 0 3 : : g 0 g p u g 0 1 : 7 R C u 7 - ; @ ; @ O O O O @ = = = ",
"= @ 2 2 @ = - = * = = * = - - = < - & $ $ $ $ < w < + $ & & - < < 7 3 : 0 g 0 g e 7 : & & & - : > * * 2 8 ; 9 q ; 8 ; @ = ; = ; ",
"; @ = = = = ; = = - = * * - - - & - & $ & $ & 6 i W A 6 $ o & & - 0 0 + > B B u : & - - < 3 1 & ; 7 9 u 1 > 9 x q q 8 = @ = = ; ",
"> > > > @ @ @ = - - = $ @ * - - & - & < < & $ 6 w w u h o.W < o + : 3 $ 0 B 7 & : - - 1 < < : & ; u J q = 8 q 9 q 8 ; @ % @ = = ",
"= ; 2 > @ @ @ = = - - @ @ - - = < = # # - + # 6 w w e w u l F A : & & - g 3 $ * : : : - : : > - 2 9 9 8 ; q t q q ; % = @ @ = @ ",
"@ @ @ ; ; @ @ @ - = @ @ > - * @ & # # - $ + o - w e e e 9 p u e p - $ & : : & 1 : : : - - - * $ 8 x C 8 - 9 t 9 9 ; O @ @ @ @ @ ",
"@ @ @ % = @ @ @ - @ @ - : & @ @ # # - - # + + # < 9 e w 7 u e u : & - & $ 1 : & - - - & * $ $ @ = 8 C > ; t M 9 8 @ @ % @ @ % @ ",
"@ @ @ @ @ = @ @ = @ & - @ @ @ > 6 6 7 6 $ o # & 6 7 e w e u w 3 $ + $ * + : > : : : & & $ $ % q 2 O ; - 8 x 9 2 ; % @ @ @ @ @ @ "
};
