/* XPM */
static char *result[] = {
/* columns rows colors chars-per-pixel */
"64 64 115 2 ",
"   c #000000",
".  c #0A0502",
"X  c #030A06",
"o  c #140A04",
"O  c #1B0D05",
"+  c #1B0F08",
"@  c #06130C",
"#  c #03180F",
"$  c #1F1008",
"%  c #071B11",
"&  c #211107",
"*  c #25140A",
"=  c #2A160B",
"-  c #2E180D",
";  c #331B0D",
":  c #3A1E0D",
">  c #361D10",
",  c #391F10",
"<  c #0B2718",
"1  c #052A1A",
"2  c #0C2C1C",
"3  c #142F1D",
"4  c #0E321F",
"5  c #3C210F",
"6  c #3C2110",
"7  c #302A16",
"8  c #3F2D18",
"9  c #073320",
"0  c #0F3722",
"q  c #0D3C25",
"w  c #103B24",
"e  c #43220E",
"r  c #4A250E",
"t  c #50280F",
"y  c #432411",
"u  c #4B2712",
"i  c #4B2912",
"p  c #532C14",
"a  c #5A2D13",
"s  c #562F18",
"d  c #4D371E",
"f  c #4D381F",
"g  c #5C3215",
"h  c #5E3219",
"j  c #563A1F",
"k  c #623416",
"l  c #6B3617",
"z  c #6B3B17",
"x  c #63351A",
"c  c #693619",
"v  c #62391D",
"b  c #6D3A1B",
"n  c #733C1A",
"m  c #7B3E1B",
"M  c #773E20",
"N  c #12432A",
"B  c #154A2E",
"V  c #154D30",
"C  c #165233",
"Z  c #185A37",
"A  c #7C411C",
"S  c #774120",
"D  c #7D4220",
"F  c #83441D",
"G  c #8A461E",
"H  c #86491B",
"J  c #8B491C",
"K  c #924C1E",
"L  c #9B4D1F",
"P  c #95511D",
"I  c #9C541F",
"U  c #A1541F",
"Y  c #A3581E",
"T  c #844421",
"R  c #894621",
"E  c #8C4921",
"W  c #934C22",
"Q  c #994F22",
"!  c #945024",
"~  c #9C5222",
"^  c #A25323",
"/  c #AB5624",
"(  c #A65922",
")  c #AC5B22",
"_  c #B05621",
"`  c #B35B25",
"'  c #BC5E25",
"]  c #BA5D28",
"[  c #B66222",
"{  c #BD6325",
"}  c #BE6923",
"|  c #C25F24",
" . c #C36326",
".. c #CC6527",
"X. c #C56824",
"o. c #CB6B26",
"O. c #C66329",
"+. c #CB6529",
"@. c #D26C27",
"#. c #D26729",
"$. c #D46A29",
"%. c #DC6D29",
"&. c #D17127",
"*. c #D97127",
"=. c #D47028",
"-. c #DC7228",
";. c #E26F2A",
":. c #E5712A",
">. c #EA732B",
",. c #EC7A2B",
"<. c #F2772C",
"1. c #F47E2C",
"2. c #FA7C2E",
"3. c #F6802B",
"4. c #FC802D",
/* pixels */
"                                                                                                                                ",
"                                                                                                                                ",
"                                                                                                                                ",
"                                                                                                                                ",
"                                                                                                                                ",
"                                                                                                                                ",
"                                                                                                                                ",
"                                                                                                                                ",
"                                                                                                                                ",
"                                                                                                                                ",
"                                                                                                                                ",
"                                                                                                                                ",
"                                                                  @ w 2 @ X                                                     ",
"                                                              @ w V C C V N @                                                   ",
"                                                            X 2 Z C C C C B 2 X                                                 ",
"                                                            < C C C C B B 4 @                                                   ",
"                                                          X C C C C N 0 % @                                                     ",
"                                                          X V C C V 0 %                                                         ",
"                                                          X V C V w %                                                           ",
"                                                          X V N 0 @                                                             ",
"                                                    O : : # q 4 1 #   O $ $ $ & o                                               ",
"                                            * : l m F x 8 3 d j j d 7 p x n l e = = .                                           ",
"                                        . y l G E ..;...A v ^ ;.%./ v Q %.%.~ b E M u &                                         ",
"                                    . ; n Q E A / %.:.%.Q Q :.;.;.>.~ / :.:.] R ;.| / W o                                       ",
"                                    e m n u n $.<.;.:.| E :.;.;.;.>...~ ;.;.;.W ~ ' m F l : .                                   ",
"                                  . c W y * , ` >.;.:.O.Q >.;.;.;.;.%.D | >.;.W 6 : * ^ / m ; .                                 ",
"                              . $ i / J : = * ; _ 2.>.W ^ >.;.;.;.;.>./ W :.Q > = * * _ :.] n * .                               ",
"                                u ^ >.l = = = * : k | W %.;.;.;.;.;.>.>.m m , = = * * / >.%.E y o                               ",
"                            . t M #.<.b = = = = * & e p L >.;.;.;.;...m u > = = = = = / ;.;...F - .                             ",
"                            : F ` ;.<.b = = = = = = * = , | >.;.;.;.k = = = = = = = - c ;.;.;. .p .                             ",
"                            e L ;.:.>.n = = = = = = = ; h $.:.:.;.>.K 5 = = = = * = z A / ;.;...m o                             ",
"                          . a W ;.;.>.R : = = - = = , k #.>.%.$.:.;.>.G u ; = = > k o.#.E >.;. .J a .                           ",
"                          o a G ;.:.:.W n n n n n n n o.>.%.G G ' ..:.:.=.n A n Y ,.;.-.K >.:.:.` Q &                           ",
"                          : n ' ;.>.>.Q -.,.,.,.,.1.~ #.;.G g { n G %.:.%.K 3.:.:.;.;.%.J %.:.$. .K =                           ",
"                          : G %.;. .>.Q #.:.;.;.:.>.Q #.;.G *.2.X.a | :.$.~ [ n %.;.;.%.M / $.J $.m :                           ",
"                          & ^ +.:.k I Q $.:.:.:.X. .K #.:.-.F / >.' %.>.%.P H i -.;.;.%.M ^ H l / n : .                         ",
"                          . F %.,.g 5 k $.:.:.:.F A H #.>.} > J <.,.X.&.%.b 6 g :.>.-.%.E H 6 H { n :                           ",
"                          o n ' -.g - 6 J ,.:. .i - h $. .i ; P 4.) 6 P :.x - e ` :.:.:.h > p =.O.m O                           ",
"                            e R -.[ i * - z X.^ * * y &.P = = k Y p = y ) i = * H >.:.H 6 * k { m u .                           ",
"                            ; h / 3.P ; = = - : = * > A 6 = * ; 6 - = = = = = - 6 I H > * 6 X.{ , .                             ",
"                              : / >.X.p - = = = = = = * = = = = = = = = = = = = - - - = = k @.~ y .                             ",
"                              o D +.2.J - * = = = = = = = = = = = = * = = = = = = = = = 5 ( #.h O                               ",
"                                + D O.:.H - * = > ; > = ; , ; = = * ; - = ; = = = = - y Q ] R u .                               ",
"                                  + M +.$.P - * p b , = > J y - $ u P y * 8 u - * = J [ ~ a ; .                                 ",
"                                    + k !  .Y k 6 ! j > y [ y > i } o.y ; k ~ - - J o.^ p -                                     ",
"                                        i W @.&.[ $.b > s E J * A ,.o.y i ~ E J A ( W p ;                                       ",
"                                        . u J ` #.:.O.b O.! ~ z X.>.[ ^ { T ] ' F F e .                                         ",
"                                            o l R ` ` M F ~ Q ,.>. .T / F W { W a e o                                           ",
"                                                & r r i x m F K W F R J k p p e .                                               ",
"                                                      O & & $ $ O & & & O O o                                                   ",
"                                                                                                                                ",
"                                                                                                                                ",
"                                                                                                                                ",
"                                                                                                                                ",
"                                                                                                                                ",
"                                                                                                                                ",
"                                                                                                                                ",
"                                                                                                                                ",
"                                                                                                                                ",
"                                                                                                                                ",
"                                                                                                                                ",
"                                                                                                                                ",
"                                                                                                                                ",
"                                                                                                                                "
};
