/* XPM */
static char *result[] = {
/* columns rows colors chars-per-pixel */
"64 64 15 1 ",
"  c black",
". c #0E321F",
"X c #560A07",
"o c #765148",
"O c #755248",
"+ c #B56D0B",
"@ c #8F5B27",
"# c #CB7A08",
"$ c #E69C0D",
"% c #FC9705",
"& c #FD9803",
"* c #F6A301",
"= c #FFA801",
"- c #FFAB00",
"; c #FFAC00",
/* pixels */
"                                                                ",
"                                                                ",
"                                                                ",
"                                                                ",
"                                                                ",
"                                                                ",
"                                                                ",
"                                                                ",
"                                                                ",
"                                                                ",
"                                                                ",
"                                                                ",
"                                                                ",
"                                                                ",
"                                                                ",
"                                                                ",
"                                                                ",
"                                                                ",
"                                                                ",
"                                                                ",
"                                 ......                         ",
"                                ...   ..                        ",
"                               ...     .                        ",
"                               ... ... .                        ",
"                               ... .. ..                        ",
"                      OOOOO    ...  ...                         ",
"                    OOO&==OO   ... OO#OOOOOO                    ",
"                   OO&--&&#OO@oo@ooo&###&==OO                   ",
"                  OO&=-&##-=##==##&==&&#&===$OO                 ",
"                 OO&==##&--&#&==&#&===&##&===&O                 ",
"                OO&=-*#&=-=&#&=-&#&&==&&##&===OO                ",
"                O&=-=+&&=-=##&=-&##&===&&##&===O                ",
"               OO&--=#&-=-&#&==-&&#&====&&##===&O               ",
"               O&=;-##=-XXX#&==-&&#&XX===&&#&===O               ",
"               O&--&#&=XXXX#&==-=&##XXX===&##%==OO              ",
"              O&=;-&#&-XXXXX&==--=&#XXXX&=&&#%==&O              ",
"              O&--&##&XXXXXX&===-=&XXXXXX==&&X=-=OO             ",
"              O=-=&#&-XXXXXX&==--=&XXXXXX===&X%==&O             ",
"              O=X=&#=XXXXXXXX==-==&XXXXXXX==&XX==&O             ",
"             OO=X=&#=XXXXXXXX===-=XXXXXXXX==&XX=-=O             ",
"             O&=X=&#===-=-&#&==--=XXXXXXX===&XX===O             ",
"             O=XX=##==X-=-&#&===-=&&#&==&===&XX=--O             ",
"             O=XXX#&=-X-=-&#&=====X%#&==&X==XXX&-=O             ",
"             O=XXXX&&-X-=-&#&X====XX#&==XX==XXXX-=O             ",
"             O=XXXX&&XXX-=&#XX===XXX#&==XX%XXXXX-=O             ",
"             O=XXXXX&XXX-&&XXXX==XXXX&==XX%XXXXX-=O             ",
"             O=XXXXXXXXXX&#XXXX=XXXXX#&XXX%XXXXX==O             ",
"             O==XXXXXXXXX&XXXXX=XXXXX#XXXXXXXXXX==O             ",
"             O==XXXXXXXXXXXXXXXXXXXXXXXXXXXXXXX=-&O             ",
"             O&-&XXXXXXXXXXXXXXXXXXXXXXXXXXXXXX=-&O             ",
"             O&-&XXXXXXXXXXXXXXXXXXXXXXXXXXXXX#=-&O             ",
"             O=-&#XXXXXXXXXXXXXXXXXXXXXXXXXXX=#=-&O             ",
"             O==&#XXXXXXXXXXXXXXXXXXXXXXXXXX=&#&-&O             ",
"             O==&#&XXXXXXXXXXXXXXXXXXXXXXXX==&#=-&O             ",
"             O==&#&XXXX=XXXXXXXXXXXXXXXXXXX==#*==&O             ",
"             O&=&#&=XXX=&XXXXXXXXXX=XXXXXX==&#&==&O             ",
"             OO==##=&XX=&XXXXXXXXXX=&XXXX&==&#===OO             ",
"              OO-&#==%X=&&XXX&=XXXX=&XXXX==&&#==OO              ",
"               O$&#&=====&XXX&=XXX==%%XX&==&&#&OO               ",
"                O$##=&===&&X&&=&XX==&#X===&&#&OO                ",
"                 OO#&====&&#&&==XX==&#&==&&##&O                 ",
"                  O@@&===&&##&&=X%=&##&=&&&#&OO                 ",
"                    OO&&=&&&#&&==&&&#&&=&&O@OO                  ",
"                     OOOOOOOOOOOOOOOOOOOOOO                     "
};
