/* XPM */
static char *result[] = {
/* columns rows colors chars-per-pixel */
"64 64 22 1 ",
"  c black",
". c #181718",
"X c #282728",
"o c #525052",
"O c #535153",
"+ c #545154",
"@ c #555355",
"# c #575457",
"$ c #5B585B",
"% c #5B595B",
"& c #5D5B5D",
"* c #605D5F",
"= c #666465",
"- c #686568",
"; c #6D6A6D",
": c #767376",
"> c #797579",
", c #868386",
"< c #888488",
"1 c #8E8A8E",
"2 c #8F8B8F",
"3 c #908C90",
/* pixels */
"                                                                ",
"                                                                ",
"                                                                ",
"                                                                ",
"                                                                ",
"                             ...........                        ",
"                         ...-<<<<<<<<<;..                       ",
"                        ..11111333111111-.                      ",
"                       .-,,,,,,,,,,,,1,,,-.                     ",
"                      .-,,============,1,;-.                    ",
"                     .-,,===============11;-.                   ",
"                     .,,====&########&===11;-.                  ",
"                    .;,,===#&========&O%==11;.                  ",
"                   .-,,===##==========&#%==12<;;.               ",
"                 ...;,,==&#=============&#==,,,;.               ",
"                 -,,,,==##===============##====;.               ",
"                .;=====&#=================#&===;.               ",
"                .;=====#%==================#===;.               ",
"                .;====&#===================#===;.               ",
"                .;====#====================#===-.               ",
"                .-*===&====================#==..                ",
"                  .===#====================#==.                 ",
"                  .*==#=@o@@@*=@@@*@o@@@*==#==.                 ",
"                  .*==#==@*==@*=@*==@*==@*=#=*.                 ",
"                  .*==#==@*==@*=@*==@*==@*=#=*.                 ",
"                  .===&==@*==@*=+*==@*==@*=#==.                 ",
"                  .===#==@+@@*==+*==@@@@*==#==.                 ",
"                  .===#==@*@*===@*==@*=====#=*.                 ",
"                  .===#==@*=@*==@*==@*=====&=*.                 ",
"                  .===#==@*==@*=@*==@*=====#=*.                 ",
"                  .===#==@*===%@@@*=@*=====#=*.                 ",
"                  .===#====================O=*.                 ",
"                  .===#====================O==.                 ",
"                  .===#====================O==.                 ",
"                  .===#====================O==.                 ",
"                  .===#====================#===.                ",
"                  *===#====================#===.                ",
"                  *===#====================#===..               ",
"                  *===&====================##==X.               ",
"                 .*==&#=====================#==*.               ",
"                .*===#======================#==$X               ",
"                .*===#======================&==$.               ",
"                .*===#======================#==*.               ",
"                .*===#======================#==*.               ",
"                .*===#======================#===.               ",
"                .*===&======================#===.               ",
"                .====&======================#===..              ",
"              ...====&***=============******#=,,;.              ",
"             .:,,,,,,,,,:*************:11111111,,1-.            ",
"            .-1,,,,,111111111,,,,,,,,,1,,,,=====,,1-.           ",
"           ..,,========,,,,,11,,,,11,,,,,==========,-.          ",
"           -;,======================================;.          ",
"          .>,=======================================;.          ",
"          .;========================================;.          ",
"          .;========================================;.          ",
"          .;========================================;.          ",
"                                                                ",
"                                                                ",
"                                                                ",
"                                                                ",
"                                                                ",
"                                                                ",
"                                                                ",
"                                                                "
};
