/* XPM */
static char *_124635347b5471f9a3242edb4ddba89MaULhIJIWYw5iZDv[] = {
/* columns rows colors chars-per-pixel */
"64 64 235 2 ",
"   c #000000",
".  c #000000",
"X  c #000000",
"o  c #000000",
"O  c #000000",
"+  c #110E05",
"@  c #100E09",
"#  c #141104",
"$  c #1A1906",
"%  c #14120D",
"&  c #181609",
"*  c #1D1C0C",
"=  c #191605",
"-  c #140F11",
";  c #141211",
":  c #1B1818",
">  c #221E09",
",  c #201E14",
"<  c #241B1C",
"1  c #3F131D",
"2  c #25240B",
"3  c #2A2A0B",
"4  c #2A2408",
"5  c #3C330A",
"6  c #38360E",
"7  c #2A2712",
"8  c #2B2A14",
"9  c #23221B",
"0  c #2D2D1A",
"q  c #272515",
"w  c #322D16",
"e  c #3B3316",
"r  c #383815",
"t  c #312707",
"y  c #371E25",
"u  c #2C2424",
"i  c #3A252B",
"p  c #3E3D31",
"a  c #483B0B",
"s  c #403D19",
"d  c #5D1622",
"f  c #423D27",
"g  c #472C38",
"h  c #4A2D36",
"j  c #4E410B",
"k  c #594A0E",
"l  c #514007",
"z  c #4C4B14",
"x  c #474516",
"c  c #534F14",
"v  c #5B5414",
"b  c #595718",
"n  c #69550E",
"m  c #645B17",
"M  c #72560D",
"N  c #64631A",
"B  c #6B681C",
"V  c #716C1A",
"C  c #796815",
"Z  c #7C721B",
"A  c #78751F",
"S  c #7C6A0D",
"D  c #494726",
"F  c #575526",
"G  c #514F34",
"H  c #634A30",
"J  c #666326",
"K  c #7B7829",
"L  c #6A6836",
"P  c #7E7538",
"I  c #5F1F45",
"U  c #791D44",
"Y  c #611B40",
"T  c #5B2841",
"R  c #5B3B45",
"E  c #693646",
"W  c #79344D",
"Q  c #6D294D",
"!  c #664850",
"~  c #6E4E56",
"^  c #933538",
"/  c #8D2F3A",
"(  c #A8353A",
")  c #896F13",
"_  c #8A7918",
"`  c #9E7C13",
"'  c #947B17",
"]  c #8C760B",
"[  c #AD4E37",
"{  c #837A24",
"}  c #887D36",
"|  c #836824",
" . c #D94A38",
".. c #821D43",
"X. c #8C1F44",
"o. c #000000",
"O. c #A81F45",
"+. c #842346",
"@. c #882547",
"#. c #962948",
"$. c #893B59",
"%. c #953757",
"&. c #933050",
"*. c #A8284B",
"=. c #BA2046",
"-. c #B72447",
";. c #A13140",
":. c #AD2A51",
">. c #BB385A",
",. c #B23355",
"<. c #CE2B40",
"1. c #CA2147",
"2. c #CB375B",
"3. c #CC3C62",
"4. c #D53F65",
"5. c #B9485A",
"6. c #A84F57",
"7. c #8D5268",
"8. c #AD4766",
"9. c #B64367",
"0. c #97574D",
"q. c #CC7A5B",
"w. c #C94769",
"e. c #D24F6F",
"r. c #9D8A1D",
"t. c #9A8218",
"y. c #AC8D1B",
"u. c #A38317",
"i. c #AE941B",
"p. c #A2991B",
"a. c #B1951B",
"s. c #B69B1C",
"d. c #BB9D1C",
"f. c #BE9116",
"g. c #AF8A0C",
"h. c #BCA51E",
"j. c #8A8729",
"k. c #948B25",
"l. c #9A9328",
"z. c #8A893D",
"x. c #91873C",
"c. c #9A9937",
"v. c #A79A26",
"b. c #B39D22",
"n. c #AF9234",
"m. c #A9A42C",
"M. c #B8A625",
"N. c #BDB22B",
"B. c #B7AB3D",
"V. c #B3B231",
"C. c #ACA13D",
"Z. c #C69917",
"A. c #CE9F13",
"S. c #CAA61C",
"D. c #DAAE13",
"F. c #D9A81A",
"G. c #C7B51D",
"H. c #DAB119",
"J. c #E5AE1A",
"K. c #E7AC17",
"L. c #E4B413",
"P. c #E5B31B",
"I. c #EEB31A",
"U. c #E6BA1F",
"Y. c #EDBC1D",
"T. c #ECB715",
"R. c #F3B619",
"E. c #F4BD1D",
"W. c #FEBD1A",
"Q. c #F7B816",
"!. c #DC9625",
"~. c #CD9F30",
"^. c #C5A922",
"/. c #C6AB24",
"(. c #CBB427",
"). c #DBB521",
"_. c #D9BA26",
"`. c #CCB636",
"'. c #E3BD22",
"]. c #ECBF20",
"[. c #E5B826",
"{. c #E6BA35",
"}. c #DCC61D",
"|. c #FEC317",
" X c #FEC815",
".X c #F5C319",
"XX c #FDC31A",
"oX c #FECA1A",
"OX c #FDD11F",
"+X c #EBC21D",
"@X c #D7C32C",
"#X c #CBC83E",
"$X c #DACA37",
"%X c #DDD739",
"&X c #ECC223",
"*X c #E2CE2D",
"=X c #E9C926",
"-X c #F3C221",
";X c #F9CB22",
":X c #EBD628",
">X c #F6D224",
",X c #FDD325",
"<X c #FDD62B",
"1X c #FDDB2C",
"2X c #F6D729",
"3X c #E9D632",
"4X c #F6DA33",
"5X c #E3C633",
"6X c #F5E12B",
"7X c #FCE42B",
"8X c #FBEA2D",
"9X c #FEF02F",
"0X c #E9E63E",
"qX c #FFE233",
"wX c #FDEA34",
"eX c #FCED3B",
"rX c #F3E736",
"tX c #FCF43D",
"yX c #948F48",
"uX c #AF9F41",
"iX c #A28453",
"pX c #B8B648",
"aX c #CD9157",
"sX c #CFB150",
"dX c #E9BD59",
"fX c #EBBE63",
"gX c #DCD945",
"hX c #DDDA4A",
"jX c #D7D446",
"kX c #E6DC49",
"lX c #F7D659",
"zX c #F7E748",
"xX c #F3F142",
"cX c #FEFB42",
"vX c #EAE850",
/* pixels */
"                                                                                                                                ",
"                                                                                                                                ",
"                                                                                                                                ",
"                                                                                                                                ",
"                                                                                                                                ",
"                                                                  . . & e D G p o                                               ",
"                                                                2 b j.M.3XzXcXpX:         o .                                   ",
"                                                          o o ; L _.:X8X9XcXcXpXO     .                                         ",
"                                                      @ 2 D D F V.rXzXyXK P z.L o     o                                         ",
"                                                      x p.G.h./.3XcXjX*     o       .       o                                   ",
"                                                o & s C.6X6X4X6X%X#Xc.O   o                                                     ",
"                                                o } 3XqX7X8XtXcXyX; O                                                           ",
"                                                u uX;X1X7X8XtXxXP o       .                                                     ",
"                                            o 8 z.$X<X1X1XqXrXV.r         o O       o   .                                       ",
"                                            % t.=X<X1X1X<X1X#Xb X         . o     o .   o .                                     ",
"                                            q /.<X<X,X<XwX3Xj.2                                                                 ",
"                                            0 b.>X;XoX1XcXjX8 .       o                                                         ",
"                                          O G ^.,X,X X1XcXjXq       X                                                           ",
"                                        o r n.[.oXoX X1XcXgX8     o o                       o                                   ",
"                                        . S &X.XoXoXoX1XcXgX0     .             ; i g i u g u                                   ",
"                                        + i.,XoXoX|.|.1XcXhX0               o i %.2.5.>.,.8.!                                   ",
"                                        & G.,XoXoXW.W.<XcXkX0             o 1 *.w.w.4.3.>.9.~ .                                 ",
"                                        * ).,XoX|.|.W.1XcXkX0             < *.1.3.e.w.>.:.w.~                                   ",
"                                        7 D.oXW.W.W.W.1XcXhX0           o +.1.1.3.e.9.*.*.w.~ o                                 ",
"                                        t L.|.W.W.W.W.<XcXvX9           g ,.1.1.2.9.%.X.X.:.~ o                     o           ",
"                                        w D.XXW.W.W.W.;X8XzXJ .       ; @.=.=.1.*.&.....X.*.!                   . D L ;         ",
"                                        e L.XXW.W.W.W.|. XOX%Xz     o E ,.=.=.-.X.X.....X.&.R                   8 %XhX9         ",
"                                        e L.XXW.W.W.W.|. XOXeXV.2   g 8.=.=.O.X.....U ..@.E :                   F rXhXu         ",
"              $ 4 X                     e D.XXW.W.W.W.W.W.oXeXkXs - $.:.O.:.#.U +...@.%.h % .   o               J 8XjX9         ",
"            6 _ i.k 2 2                 3 A.XXW.W.W.W.W.W.;XtXxXF H 5.O.:.8.$.U U U W ! < o     .             o x.9X`.:         ",
"            x ).-Xy.b.N 6 X           o # g.Q.W.W.W.W.W.W.XX1X1XpXaXq.5.9.7.Q I I T i O .           o       2 z.kX6Xv.O         ",
"            z U.W.W.Y.).i.v X           O ] T.W.W.W.W.W.W.W.XXoX4XvXfXaX6.Q I I T :                         c.cX8X}.B X         ",
"          . b &XW.W.W.W.E._.)           @ a y.R.W.W.W.W.W.|.oXoX4XzXlXfXaX0.W h : o                   o O q #XtX$XZ 3 o         ",
"          . m '.E.W.W.W.W.E.(.              D F.XXW.W.W.W.W.W.W.XX,X<XzXlXlXq.G o                   . 7 m.%XeX:XyX: o           ",
"            2 i.-XW.W.W.W.E.[.s             * Z. X|.W.W.W.W.W.W.XXoX,XtXcXxX%Xj.                  7 c m.tXtX8X}.D               ",
"            + _ ].W.W.W.W.W.].k.*           q ` L.W.W.W.W.W.W.W.|.|.oX<X<X1X6X$Xc.j.j.K b x r b K `.3XrXwXwX7XG.0 o             ",
"              2 (.E.W.W.W.W.].Z #         o , a Z.R.W.W.W.W.W.W.W.W.W.W.W.|. X1XcXcXcXcXxX0X0XtXcXqX1X1X7X7X@X] %               ",
"            6 j m b.].W.W.W.].2Xb .         X > W.F.R.W.W.W.W.W.W.W.W.W.XXXX X,XeXeXeXeXeXeXeXeXeXqX<X<X1X=Xl.2                 ",
"          . v ^.].].].W.W.W.W.].c x           N R.W.W.W.W.W.W.W.W.W.W.W.W.W.XXW.W.XXXXXXoXoXoXOXOX<X<X=Xh.r.p .                 ",
"            & M.].W.W.W.W.W.W.W.H.z         2 v.T.W.W.W.W.W.W.W.W.W.W.W.W.W.W.W.W.W.W.W.|.oXoXoX X,X=XM.v 5 .                   ",
"              k P.W.W.W.W.W.W.W.'.s.3 #     N H.W.W.W.W.W.W. XoXW.W.W.W.W.W.W.W.W.W.|.oXXXoXoXoX;X'.b.{ q X                     ",
"                ` ].&XW.Q.R.Q.W.;X).r.w   N *XXXW.W.W.W.XXW. X X|.W.W.W.W.W.W.W.W.W.oXXXoXoXoX@Xa.' l 2 o                       ",
"                    S.U.Z.` Z.R.W.W.E.) j.$XoXW.W.W.W.W.W.W.{.sX[.T.W.W.|.W.W.|.W.|.oXoXoX.X).} e 7 $ .                         ",
"                    + t 4 # a Z.R.I.J.F.m.XXoXW.W.W.W.XXW.5X| p } f.L. XoX XoX XoX.X>X=X/.t.m 9 . o o                           ",
"                            . k t..XJ.J.2XoXW.W.W.W.XXW.W.n     * a _ a.Z.d.d.a.a.y.k.) x > &                                   ",
"                                + 5 S.'..X XW.W.W.W.W.W.'       O . X X % O O O X @ ; & X X % o                                 ",
"                                    { &X XW.W.W.W.oXW.E.z                                                                       "
"                                  / `..XW.W.W.W.W.oXW.A.z *                                                                     ",
"                                d ^ 1.!.|.W.W.W.W.W.W.E.S.' = X                                                                 ",
"                                F ( <.w.!.!.W. XoXY.R.W.W.E.].F.u.Z n 4 $ .                                                     ",
"                              c N.!.[ 1.<.e.!.W.oXv.` I.W.W.oXE.Q.I.P.f._ z X                                                   ",
"                            c N.L.|.|. .w.=./ =.n.N n F.W.W.W.W.|.W.W.W.P._.A .                                                 ",
"                            K =XXXW.W.W.!.!.( <.(   . ' R.W.W.W.W.W.W.W.+X].@X6                                                 ",
"                          N *X|.oXW.W.W.|.!.~.^       5 F.W.W.E.W.W.W.W.W.&X5XV 2                                               ",
"                        6 $X|.oXW.W.W.W.|.*Xk.        t S.W.E.Y.-XE.W.W.W.W.;X(.Z X                                             ",
"                      # l.4X|.W.W.W.W.W.T.V           . Z.R.Y.4 b.'.I.Q.W.W.W.&XS.x                                             ",
"                    $ N *X;XXXW.W.W.W..Xd.3             n f.U.X c u.t.f.K.E.E.-XM =                                             ",
"                    B =X.XXXW.W.W.W.oX*Xc                 C '   . + = 5 ) F.Z.a .                                               ",
"                  l.*XoXoXW.W.W.W.W..XM.                                + 3 a                                                   ",
"                  $X XoXW.W.W.W.W.oX*XV                                                                                         ",
"              2 M.>XoXW.W.W.W.W.E..XM.                                                                                          ",
"            X V @XoXW.W.W.W.W.W.oX@Xz                                                                                           ",
"            3 s.|.oXW.W.W.W.W.oXrXV                                                                                             ",
"            Z K.oXW.W.W.W.W.W.oX3X                                                                                              "
};
