/* XPM */
static char *result[] = {
/* columns rows colors chars-per-pixel */
"64 64 12 1 ",
"  c black",
". c #1B1B1B",
"X c #3A3A3A",
"o c gray23",
"O c #3F3F3F",
"+ c gray26",
"@ c gray28",
"# c #484848",
"$ c gray29",
"% c #505050",
"& c #F2C200",
"* c #B0A39F",
/* pixels */
"                                                                ",
"                                                                ",
"                                                                ",
"                                                                ",
"                                                                ",
"                                                                ",
"                   &                &                           ",
"                         &                 &                    ",
"                   *                *                           ",
"                   *     *          *      *                    ",
"                   *     *          *      *                    ",
"                   *     *          *      *                    ",
"                   *     *          *      *                    ",
"                 +++++   *        +O+++    *                    ",
"                  ooo  @@@@@       ooo   o@@@%                  ",
"                   o    ooo         o     ooo                   ",
"                   o     o          o      o                    ",
"                   o     o          o      o                    ",
"                  ooo    o         ooo     o                    ",
"                   o   .ooo         o     ooo                   ",
"                   o     #   +++++  o      #                    ",
"                   o     #   +@@@+  o      #                    ",
"                   o     #ooooooooo##      #                    ",
"                   oo   o#o #oooooo o#     #                    ",
"                    oooo # #  +@o  o  ##  #                     ",
"                          #   +@o       ##                      ",
"                              +@o                               ",
"                              +@o                               ",
"                              +@o                               ",
"                              +@o                               ",
"                              +@o                               ",
"                              +@o                               ",
"                             ooooo                              ",
"                             ooooo                              ",
"                            $ooooo@                             ",
"                            +$$$$$+                             ",
"                            +@@@@@+                             ",
"                            @++++++                             ",
"                             ooooo                              ",
"                             ooooo                              ",
"                              +@o                               ",
"                              +@o                               ",
"                              +@o                               ",
"                              +@o                               ",
"                              +@o                               ",
"                              +@o                               ",
"                              +@o                               ",
"                              +@o                               ",
"                              +@o                               ",
"                              +@o                               ",
"                              +@o                               ",
"                              +@o                               ",
"                              +@o                               ",
"                              +@o                               ",
"                              @@o                               ",
"                              @@o                               ",
"                              +@o                               ",
"                              +@o                               ",
"                              +@o                               ",
"                             ooooX                              ",
"                           oo+ooo@@o                            ",
"                         ooo+@@@o@+ooo                          ",
"                          ooo@@@$oooo                           ",
"                           ooooooooo                            "
};
