/* XPM */
static char *result[] = {
/* columns rows colors chars-per-pixel */
"64 64 158 2 ",
"   c #000000",
".  c #0C0203",
"X  c #130304",
"o  c #1D0406",
"O  c #220407",
"+  c #250508",
"@  c #2C0609",
"#  c #34070B",
"$  c #39070C",
"%  c #340C0A",
"&  c #3B080C",
"*  c #43090E",
"=  c #48090F",
"-  c #4B0A10",
";  c #530B12",
":  c #5B0C14",
">  c #660E16",
",  c #6C0F17",
"<  c #6D0F18",
"1  c #730F19",
"2  c #7B0E1B",
"3  c #701017",
"4  c #731119",
"5  c #7D111B",
"6  c #51200E",
"7  c #403403",
"8  c #602311",
"9  c #524203",
"0  c #604D04",
"q  c #796205",
"w  c #83121C",
"e  c #8C131E",
"r  c #92141F",
"t  c #8F291B",
"y  c #931320",
"u  c #9B1521",
"i  c #AD0F26",
"p  c #B10F28",
"a  c #A41623",
"s  c #AA1625",
"d  c #AD1825",
"f  c #B41627",
"g  c #B41A26",
"h  c #B91A27",
"j  c #B61428",
"k  c #BA1528",
"l  c #BC1928",
"z  c #B52426",
"x  c #B92326",
"c  c #BC2A25",
"v  c #BD3524",
"b  c #B53922",
"n  c #BD3E23",
"m  c #C01A29",
"M  c #C22726",
"N  c #C42B26",
"B  c #C23425",
"V  c #C93226",
"C  c #C73824",
"Z  c #CB3D24",
"A  c #825D0A",
"S  c #9A5910",
"D  c #896E05",
"F  c #846A05",
"G  c #CA651A",
"H  c #D76A1E",
"J  c #E06F1F",
"K  c #E4741F",
"L  c #EC771F",
"P  c #EF7B1F",
"I  c #E27A1C",
"U  c #F27C1F",
"Y  c #C64323",
"T  c #CE4723",
"R  c #CB4A23",
"E  c #DC4726",
"W  c #D14D22",
"Q  c #DB4D24",
"!  c #CE5321",
"~  c #D25322",
"^  c #D85623",
"/  c #D55921",
"(  c #D85823",
")  c #D76022",
"_  c #DB6620",
"`  c #DE6A20",
"'  c #E26D20",
"]  c #EB6F21",
"[  c #E46222",
"{  c #ED7920",
"}  c #F47221",
"|  c #F57B20",
" . c #FD7E21",
".. c #B18A07",
"X. c #B39206",
"o. c #FC841E",
"O. c #F48C1A",
"+. c #FE8B1E",
"@. c #ED9516",
"#. c #E49D11",
"$. c #EB9B13",
"%. c #F19217",
"&. c #FE9717",
"*. c #F29D13",
"=. c #F29118",
"-. c #F99318",
";. c #D4AB02",
":. c #DFB401",
">. c #DFB108",
",. c #E7A40F",
"<. c #E9A60F",
"1. c #E4AF0A",
"2. c #EAAA0D",
"3. c #F7A70F",
"4. c #F6AF0B",
"5. c #E4B706",
"6. c #E9B707",
"7. c #E5BB04",
"8. c #ECBB06",
"9. c #E4B109",
"0. c #EDB20A",
"q. c #F4BC05",
"w. c #F4B409",
"e. c #F6B908",
"r. c #E7A210",
"t. c #EAA210",
"y. c #F8A112",
"u. c #FF8220",
"i. c #E4C002",
"p. c #EDC302",
"a. c #F2C302",
"s. c #F1C800",
"d. c #F2C50A",
"f. c #F1C614",
"g. c #F3C813",
"h. c #EFCA2F",
"j. c #F1CB2D",
"k. c #F4D036",
"l. c #EFCE40",
"z. c #F0CE40",
"x. c #EFD04B",
"c. c #F1D143",
"v. c #EFD253",
"b. c #EED35E",
"n. c #F1D352",
"m. c #F1D65C",
"M. c #EFD564",
"N. c #EED568",
"B. c #F3DA6C",
"V. c #EFDB7C",
"C. c #F0D975",
"Z. c #F3DD7C",
"A. c #F5E07E",
"S. c #FBE57D",
"D. c #F7E381",
"F. c #FDE780",
"G. c #FEE881",
"H. c #FBE889",
/* pixels */
"                                                                                                                                ",
"                                                                                                                                ",
"                                                                                                                                ",
"                                                                                                                                ",
"                                                                                                                                ",
"                                                                                                                                ",
"                                                                                                                                ",
"                                                                                                                                ",
"                                                                        O                                                       ",
"                                                                      . < o                                                     ",
"                                                                      # w -                                                     ",
"                                                                      w a #                                                     ",
"                                                                  X 1 g s -                                                     ",
"                                                                X 5 y g s ;                                                     ",
"                                                              $ e g l g d &                                                     ",
"                                                            # s m j f h g &                                                     ",
"                                                          * s j x ! x h 4 o                                                     ",
"                                                        # 1 m z / o.M f ;                                                       ",
"                                                    @ : w f z ! U u.M g e               #                                       ",
"                                                  @ > s g x ! U u.o.M f e             . u                                       ",
"                                                  : g h x ~ U o.2.-.C h a e           * u                                       ",
"                                          .     : g h g ! U  .=.7.O.| R z s y .     . : s +                                     ",
"                                        X ;   O u l k C U u.o.$.i.*.u.{ R d 5 *     & l d ; X                                   ",
"                                        # s o @ a h x K o. .@.6.s.7.%.u.{ R f r = O o d l g =                                   ",
"                                      @ u d * @ s j [ | U +.6.a.a.p.9.%. .' Z k f :   g l s &                                   ",
"                                      y l a + $ d h } u.o.9.7.a.a.a.p.9.%.| K C l :   : h g 5 .                                 ",
"                                  O e l s $   # a j } u.+.p.a.a.a.a.a.q.9.=.u.R j s = o h h l ;                                 ",
"                                  = g g & .   @ a k } u.+.p.a.q.a.a.a.a.p.0.u.-.z l 1   O f m u O                               ",
"                                  + y y X 4 + # s j }  .+.s.a.a.a.a.a.a.d.7.t.u.+.j 1   X @ a s : .                             ",
"                                        < d & O a j }  .o.s.a.a.a.a.a.a.a.s.4.-.+.k 1 X 5 - o o .                               ",
"                                      > l f ; @ a h }  .-.s.a.a.a.a.a.a.a.s.4.+.+.M < . > g g - X                               ",
"                                    @ h Z k u < s v | o.t.a.a.a.a.a.a.a.a.d.4.+.+.V 2 . + 4 l f > &                             ",
"                                    : h ] W s f k W U o.9.a.a.a.a.x.a.a.a.s.4.u.u.C e     2 N Z s e X                           ",
"                                  # u x u.' W x x ] o.o.7.a.a.a.a.x.a.a.a.a.w.u.u.V y - , d ! W l w X                           ",
"                                o r l h u.|  .} } U o.@.7.a.a.a.a.x.a.a.a.s.4.+.u.C f d g Y P Q j 5 .                           ",
"                                - g g z u.o.#.=. .u.@.5.q.a.a.a.a.m.x.a.a.d.w.+.u.V g h R { u.^ j 5 .                           ",
"                                + r l h ' o.<.9.O.@.#.a.a.a.a.a.d.M.Z.d.a.a.q.O. .^ R R P o.+.Q k w .                           ",
"                                @ : d h R  .O.7.9.<.q.a.a.a.a.a.h.C.V.f.a.a.8.O. .u.u.u.u.*.e.E j 2 X                           ",
"                                o 3 g h R u.o.<.6.a.s.a.a.a.q.a.M.Z.Z.b.f.a.p.<.o. . . .o.7.*.Q j 5 .                           ",
"                                  = e g R o. .$.p.a.a.a.a.a.d.x.Z.G.Z.Z.m.a.p.i.@.O.O.O.t.2. .Q j w .                           ",
"                                  @ : g R u.u.O.8.a.a.a.a.a.f.C.Z.G.S.Z.B.a.a.a.8.q.6.8.p.0.o.Q j 5 .                           ",
"                                  . , g R { o.r.8.a.a.a.a.d.N.Z.G.G.G.Z.B.q.a.a.a.a.a.a.q.+.} B l 5 .                           ",
"                                    4 h c { =.7.a.a.a.q.a.n.Z.G.S.G.G.Z.B.a.a.a.a.a.a.a.q. .H c l 2 X                           ",
"                                    ; d x ) =.p.s.a.a.a.f.m.G.G.G.G.G.G.B.a.a.a.a.a.a.a.w. .W f m :                             ",
"                                    @ < h ~ o.0.s.a.a.d.v.Z.G.F.G.G.S.F.Z.k.a.a.a.a.a.a.U ( j k l @                             ",
"                                      5 x Y I 0.a.a.a.a.v.D.G.F.G.S.G.G.D.Z.z.d.a.a.a.e.J M g g 1 .                             ",
"                                      5 g g ! r.7.s.a.a.n.G.F.G.G.G.G.S.G.F.Z.h.a.a.a.U / f l s O                               ",
"                                      5 l g c K r.8.a.d.n.G.F.F.F.S.F.G.G.G.H.z.a.a.3.K x h g e o                               ",
"                                      + e l h v ' 1.d.d.n.G.G.G.G.G.G.S.G.D.A.j.s.y.u.~ h l u @                                 ",
"                                        + y l j / O.6.s.v.D.G.G.G.S.G.G.G.Z.k.d.y.u.^ z h l u X                                 ",
"                                          O e l B ' o.5.f.m.F.S.S.G.G.G.S.z.a.a.&.^ x l s 5 $                                   ",
"                                          . - e h B H $.7.g.b.F.G.G.S.S.B.d.w.u./ n h w 5 @                                     ",
"                                              @ > 2 t H #.7.g.m.B.N.B.z.k.a.$.G b 4 4 & @                                       ",
"                                                  O - 8 A X.;.7.7.7.:.;.;...S 6 % @ @                                           ",
"                                                          . 9 0 F D q 9 7                                                       ",
"                                                                                                                                ",
"                                                                                                                                ",
"                                                                                                                                ",
"                                                                                                                                ",
"                                                                                                                                ",
"                                                                                                                                ",
"                                                                                                                                ",
"                                                                                                                                ",
"                                                                                                                                "
};
