/* XPM */
static char *e64bf465a0ad433c9b606efee610c09fDVgl8WWAZae5dde1[] = {
/* columns rows colors chars-per-pixel */
"64 64 26 1 ",
"  c gray11",
". c #382C14",
"X c #202020",
"o c #282828",
"O c #2C2C2C",
"+ c gray19",
"@ c #343434",
"# c gray22",
"$ c #403018",
"% c #483818",
"& c #543C1C",
"* c #5C4020",
"= c #6C4824",
"- c #744C28",
"; c gray25",
": c #484848",
"> c #4C4C4C",
", c gray33",
"< c gray36",
"1 c #646464",
"2 c gray44",
"3 c #7C7C7C",
"4 c #80502C",
"5 c gray55",
"6 c #989898",
"7 c gray66",
/* pixels */
"321><>>>>>>:>>>:#;;11:&*%%%%%&&&%%%%%%%$:1,OOOOOX:3333==********",
"211><>>>>>>>>>>>:#;;13:&*%%%%&&&%%%%%%%$:1#XXXOOX:311111==******",
"111><>>>>>>>::::>:##,13:&*%%%&&&%&%%%%$:1,OOOOXXX:1:::::,1==****",
"<11><>>>>>>>::::>>;@#,131:&%%%%%%%%%%$:13#OOOOOOX:,,,>>:::,,==**",
"<11><>>>:>>>::::>>:@;#,131:&%%%%%%%%$:133OOOOOOOX:,,,,,>:>:::1==",
",11><>>>>>>>::::>>>##;#,131:&&&&&&&$:1333OOOOOOOX3,,,,,,,::>,>11",
">11><>>>>>>>>>>>>>>;@;;#,1321,<1311111111111111113,,>,,,,,>:,,>1",
"><1,<>>>>>>::>>>>>>:##;##,132<,<*&&&&&&%%%%%%%%:12,,,,,,,,,>:,>3",
">,1,<>>>>>>::>>>>>>>;@;;##,531<-**************&%:1,,,>>,,,,>>133",
">,1<<>>>>>>>>>>>>>>>;@;;##,5522****************&%:11,>>,,,,>1,,,",
",><1<>>>>>>>>>>>>>>>:@;;##,3523%%%%%%&&*****&***&%:131,,,,11XXXX",
",>,1<>:>>>>>>>>>>:>>:@;;##,3311-******&&&*****&&*&%:1551,31#OOOO",
"1,>1<>>>>>>>>>>>>>>>:@;;#,131,1-*********&&***&&**%::15531#OOOOo",
",1,1<>>>>>:>>>>>>>>>:@;#,13,::1-***********&******&%:1231#OOOOoX",
"2,11<>>>:>>>>>>>>>>>:@#,13,:::1-******************&&,231#OOOOoXX",
"12,1<>>>>:>:>>>>>>>>;#,13,::::1-**&***************&,231#OOOOoXXo",
":12,1,>>>>>>>>>>>>>>;;132,::::1-*****************&,231#OOOOoXoOO",
"O:12,1,>>>:>>>>>>>>:;125521,:,1-***************=*&231#OOOOoXooXX",
"OO:12,1,>>>>>>>>>>>;116653221,3-======*=*****==*&121#OOOOoXoX   ",
"OOO:12,1,,<<,,,,>>;125663211123-=*******=-44-=*&121#OOOOoXXXXXXX",
"OOO:173311111111,,112553,;:,,12,==44444444-=***&21#OOOooXXXXXooo",
"OOO:15766553533331,%%13,;##@+:,121,:===*******&11#OooOOXXXXooOOO",
"OO:13111111222333***%1,;;;;;##@+,,1221,===***&11#OOooOXXooOOOOOO",
"O:11:.....;>,1123=**%1,;;;;#####@++123321,==&13#OOOOOoXoOOOOOOOO",
"231%%$........;>,1=*%1,;;##;;;;;;##+:,123323322#OOOOOXOOOOoOOooO",
"23:$$$%%%$$.......<=%3,;#;;;;;;;;;;;#@+:,,123221#OOOoOOOOoOOOooO",
"22*%%%$$..........$133,#####@@@@++++++++++:,12331##oOOOOoooOOOOO",
"23*$$$$$$$%%%%%%$$.$13,;;;;;;;;;;##@@++++++++:,231:#OOOOoooOOOOo",
"32*%%%%%%%%%%%%%%%$.>1,:;;::;;;;;;;;;;;;;;###@++1331##OOOOOOOOOO",
"33*%%%%%%%%%%%%%%%%..>1,:;::;;;;;;;;;;;;;;;;;;#+,33331##OOOOOOOO",
"13:*%%%%$$%.......$$..<1,:;;;:;;;;;;;;;;;;;;;;#+,3:$$:1#########",
",11*%%%%%%%%%%%$$.....;11,:;;;;;;;;;;;;;;;;;#@@+1:%%%$:,1:#OOOOO",
"%,1:*%%%%%%%%%%%%%%$...,31,:;;;;;;;;;;;;;;::@@+,3$$$$$$$:11##OOO",
"&%,3:*%%%%%%%%%%%%%%$..;13,,:;;;;;;;;::>>>:@@+,3:%%%%%$$$:,1:#OO",
"&%:13*%%%%%%%%%%%%%%%%..,13,,:;;:::>>>>:;;#@+,3:$$$$$$$$$$$:11#O",
"*&%,31*%%%%%%%%%%%%%%%%..;<3,,,,,,,,,,,,,++,,55%%%%%%%%%%%$$:,11",
"**&%13:*%%%%%%%%%%%%%%%%..>32,,:::::::::#@+1155:&%%%%$%$$$$$$$:,",
"**&%,33*&%%&%%%%%%%%%%%%$.;<32,,:;;;;;;##+:,1133:&%%%%%%%%%%%%$:",
"***&%131*&%%%%%%%%%%%%%%%..<223,,:;;;;;#+:,::#:,1:&%%%%%%%%%%%%$",
"%%%%%,13:*&%&&%%%%%%%%%%%..>1323,,:;;;#,211,,:#:,1:&%%%%%%%%%%%%",
"$$$$$%,13*&%&&%%%%%%%%%%%..:133331,,,12521,,,,:#:,1:&%%%%%%%%%%%",
"&&&%%$:131*&%%%%&%%%%%%%$..:1&%%133566551,,,,,,:#:,1:&&%%%&%%%%%",
"****&$$,13:*&&%%%%%%%%%%..:1***%%,55661,,,,,::::;#:,1:*&&%%%%%%%",
"*****&$%131*&&*&%%%%%%%$:13,***&%,3551,,,:;;;;;@@@@:,:&********%",
"******&$,331*%%**&&&&$:1333=****&1531,,:;;:::::::;;@:1:&&&&&&&&&",
"*******&$1331*&%%%&&:133323=****&331,,:,,,,,,,,,,,,:#:1:&%%%%%%%",
"**&&***&$,1321*****13211123,=***331,,,,,,,,,:,:::::::#,1:&%%%%%%",
"**&&****&$,1553,1121::####23=**331,,,,,,,,,,,,,,,,:::#:,1:&%%:,1",
"*&******&$:,6551:1,,,,,>::#21=131,,,,,,,,,<,,,,,,,,,::#:,1::,13,",
"*********&$,662:,,,,,,,,>:#12221,,,,,,,,,,,,,,,,,,,,,::#:,1333,;",
"*****&***&$,21::>,,,,,,,,:#1222,<,,,,,,,,,,,,,,,,,,,,,:#:,133,;;",
"*********&$,1:::;;;;;;;;;#125221,<,,,,<,<<,,,,,,,,,,,:#:&%,33;;;",
"*********&$,,,,,,>;;,,,:123522531,<<,,,,,,,,,,<,,,,,:#:**%%,3,;;",
"********&%,1,,,,,,,;;::13323332331,,<<,,,,<<<,,,,,,,#:1**&%%,3,;",
"*******&%,13,,,,,,,,:12331,:::,,1131,,<,,,<<<<,,,,,#:1%%%%$$$,33",
"******&%,1331,,,,,,:2311:$$$$$$$:11231,,,,,<<<,<<,::1,=***&%$$,3",
"--===&%,132221,,,,131:$%%%%%%%%$$:113311,,,,,,,<<::13=*&&&%%%$$,",
"**&%%%,333322321121:$$$$$$....$$%$:112321,,,,,,,,:15,=****&&&%%$",
"*&%,1232,:::#13321:&%%%%%%%%%$$...$:112331,,,,,,:155=*********&$",
"&%,1322,:::::#133:&%%%%%%%%%%%%%$$..:1135521,,,:135,=**********&",
"%,1222,>>>>>>:#13:&*%%%&%%%%&%%%%%%$.:1156653211225=****&&******",
"32232,>>>>>>>>:#11:&*%%%%%&&%%%%%%%%%$:11665::11223=****&&******",
"3222,>>>>>>>>>>:#11:&*%%%%&&%%%%%%%%%%$:113:XX:1232,=*&*********",
"332,>>>>>>>>>>>>:#11:&*%%%%%%%%%%%%%%%%$:11OOOX:1333=***********"
};
